<svg xmlns="http://www.w3.org/2000/svg" width="386.085" height="387" viewBox="0 0 386.085 387"><defs><style>.a{fill:#e4e9ea;}.aw,.b{fill:#ede7e4;}.c{fill:#ccc2bc;}.d{fill:#405e7a;}.e{fill:#2a95bf;}.f{fill:#f7f6f0;}.g{fill:#bccace;}.h{fill:#fff;}.al,.i{fill:#848dea;}.ad,.af,.ai,.aj,.ar,.as,.at,.aw,.i,.j{fill-rule:evenodd;}.am,.j{fill:#255880;}.as,.k{fill:#fdd247;}.l{fill:#e2d6d0;}.ar,.m{fill:#69c2d4;}.n{fill:#92b7c2;opacity:0.3;}.o{fill:#dfeef2;}.p{fill:#88badb;}.q{fill:#fefefe;opacity:0.2;}.r{fill:#a0c8d1;}.s{fill:#f1d1b6;}.t{fill:#78a5b3;}.u{fill:#74825f;}.v{fill:#53aa53;}.w{fill:#419341;}.at,.x{fill:#6c6;}.y{fill:#f0ebe6;}.z{fill:#efeae8;}.aa{fill:#f3b989;}.ab{fill:#f3af77;}.ac{fill:#f4a086;}.ad{fill:#0a3c5f;}.ae{fill:#f7b690;}.af{fill:#18898d;}.ag{fill:#a2d1eb;}.ah{fill:#3c79a6;}.ai{fill:#222b54;}.aj{fill:#222b56;}.ak{fill:#60aedc;}.an{fill:#a1adb0;}.ao{fill:#799ea8;}.ap{fill:#c5dcfd;}.aq{fill:#d1c7b1;}.au{fill:#db7170;}.av{fill:#fe6b80;}.ax{fill:#70a0fe;}</style></defs><path class="a" d="M927.5,1455.884h298.8s8-91.962-140.908-132.636c-37.59-10.269-72.319-135.689-112.217-119.918C898.534,1232.836,927.5,1455.884,927.5,1455.884Z" transform="translate(-840.292 -1095.478)"/><path class="b" d="M3333.95,772.026h-30.188a.69.69,0,0,1-.663-.988l5.766-17.541a1.492,1.492,0,0,1,1.313-.988h30.188a.691.691,0,0,1,.663.988l-5.767,17.541A1.5,1.5,0,0,1,3333.95,772.026Z" transform="translate(-3010.432 -685.845)"/><path class="c" d="M3396.837,775.94c-1.562,1-3.149,1.949-4.74,2.9s-3.2,1.86-4.8,2.783c-1.615.9-3.223,1.816-4.851,2.694l-2.435,1.329-2.45,1.3-.331.177-.284-.237c-1.052-.877-2.087-1.772-3.124-2.668s-2.064-1.8-3.1-2.708-2.045-1.824-3.054-2.753-2.014-1.86-3-2.816q1.677,1.2,3.312,2.442c1.095.826,2.177,1.665,3.258,2.507s2.156,1.69,3.219,2.554,2.135,1.715,3.189,2.59l-.62-.062,2.435-1.329,2.449-1.3c1.629-.876,3.278-1.713,4.92-2.569,1.651-.835,3.3-1.669,4.968-2.476S3395.141,776.691,3396.837,775.94Z" transform="translate(-3066.595 -707.2)"/><path class="b" d="M3131.854,761.5h-13.847a.316.316,0,0,1-.3-.453l2.645-8.044a.685.685,0,0,1,.6-.454H3134.8a.317.317,0,0,1,.3.454l-2.645,8.044A.686.686,0,0,1,3131.854,761.5Z" transform="translate(-2841.485 -685.882)"/><path class="c" d="M3160.713,763.28c-.68.531-1.385,1.005-2.095,1.476s-1.434.914-2.158,1.359c-.734.426-1.46.867-2.207,1.27s-1.484.821-2.239,1.209l-.341.177-.279-.237c-.478-.407-.945-.829-1.412-1.249s-.926-.851-1.385-1.281-.906-.875-1.346-1.329-.875-.912-1.292-1.393c.549.321,1.08.666,1.6,1.019s1.039.716,1.55,1.083,1.017.741,1.51,1.13,1,.767,1.482,1.164l-.62-.063c.74-.416,1.489-.812,2.243-1.2s1.515-.764,2.275-1.142c.77-.36,1.539-.72,2.323-1.053S3159.9,763.557,3160.713,763.28Z" transform="translate(-2867.261 -695.661)"/><path class="b" d="M3329.421,565.618h-19.863a.454.454,0,0,1-.436-.649l3.794-11.54a.982.982,0,0,1,.863-.649h19.863a.455.455,0,0,1,.436.649l-3.794,11.54A.986.986,0,0,1,3329.421,565.618Z" transform="translate(-3015.938 -503.809)"/><path class="c" d="M3370.821,568.16c-1,.7-2.038,1.355-3.069,2s-2.083,1.263-3.131,1.883c-1.059.6-2.109,1.217-3.18,1.795l-1.6.878-1.614.851-.332.177-.283-.237c-.691-.578-1.367-1.174-2.044-1.772s-1.344-1.2-2.013-1.806-1.324-1.224-1.974-1.852-1.294-1.261-1.92-1.918c.758.5,1.5,1.015,2.232,1.543s1.458,1.063,2.178,1.607,1.437,1.091,2.139,1.655,1.417,1.115,2.109,1.691l-.615-.062,1.6-.879,1.614-.851c1.072-.577,2.165-1.114,3.249-1.666,1.1-.532,2.189-1.068,3.3-1.577S3369.683,568.612,3370.821,568.16Z" transform="translate(-3052.915 -517.827)"/><rect class="d" width="154.233" height="304.829" rx="77.117" transform="translate(126.475 28.095)"/><rect class="e" width="141.668" height="16.402" transform="translate(132.758 38.05)"/><rect class="f" width="141.668" height="260.154" transform="translate(132.758 54.452)"/><path class="f" d="M1611.838,482.71a3.488,3.488,0,1,0,3.488,3.488A3.488,3.488,0,0,0,1611.838,482.71Zm10.744,4.685h30.156V485h-30.156Zm38.915,0h30.155V485H1661.5ZM1700.411,485V487.4h30.155V485Z" transform="translate(-1465.867 -439.947)"/><path class="g" d="M2483.05,751.27H2441.6a2.255,2.255,0,1,0,0,4.511h41.455a2.255,2.255,0,0,0,0-4.511Z" transform="translate(-2223.24 -684.715)"/><circle class="e" cx="3.248" cy="3.248" r="3.248" transform="translate(205.242 65.562)"/><circle class="e" cx="3.248" cy="3.248" r="3.248" transform="translate(205.242 77.839)"/><circle class="e" cx="3.248" cy="3.248" r="3.248" transform="translate(205.242 90.115)"/><circle class="e" cx="3.248" cy="3.248" r="3.248" transform="translate(205.242 102.392)"/><circle class="e" cx="3.248" cy="3.248" r="3.248" transform="translate(205.242 114.669)"/><circle class="e" cx="3.248" cy="3.248" r="3.248" transform="translate(205.242 126.945)"/><path class="g" d="M2483.05,889.85H2441.6a2.255,2.255,0,1,0,0,4.511h41.455a2.255,2.255,0,0,0,0-4.511Z" transform="translate(-2223.24 -811.019)"/><path class="g" d="M2483.041,1028.416h-41.455a2.256,2.256,0,1,0,0,4.512h41.455a2.256,2.256,0,1,0,0-4.512Z" transform="translate(-2223.231 -937.308)"/><path class="g" d="M2483.05,1167H2441.6a2.255,2.255,0,1,0,0,4.511h41.455a2.255,2.255,0,0,0,0-4.511Z" transform="translate(-2223.24 -1063.616)"/><path class="g" d="M2483.05,1305.58H2441.6a2.256,2.256,0,1,0,0,4.511h41.455a2.255,2.255,0,0,0,0-4.511Z" transform="translate(-2223.24 -1189.919)"/><path class="g" d="M2483.05,1444.16H2441.6a2.255,2.255,0,1,0,0,4.511h41.455a2.255,2.255,0,0,0,0-4.511Z" transform="translate(-2223.24 -1316.223)"/><rect class="e" width="132.764" height="14.949" rx="7.475" transform="translate(137.209 145.129)"/><rect class="f" width="132.764" height="65.942" rx="11.08" transform="translate(137.209 169.186)"/><rect class="g" width="132.764" height="65.942" rx="11.08" transform="translate(137.209 242.202)"/><path class="f" d="M1629.43,2866.113h31.432V2834.68H1629.43Zm38.386-6.7h80.1v-2.047h-80.1Zm0,5.588h47.341v-2.048h-47.341Zm0-22.35h80.1v-2.047h-80.1Zm0-7.635v2.047h80.1v-2.047Zm0,18.809h80.1v-2.047h-80.1Zm0-5.587h80.1v-2.047h-80.1Z" transform="translate(-1485.079 -2583.557)"/><rect class="f" width="22.792" height="2.431" transform="translate(158.021 293.631)"/><circle class="e" cx="5.167" cy="5.167" r="5.167" transform="translate(143.292 292.051) rotate(-22.5)"/><rect class="f" width="22.792" height="2.431" transform="translate(198.767 293.631)"/><circle class="e" cx="5.167" cy="5.167" r="5.167" transform="translate(184.874 290.563) rotate(-9.22)"/><rect class="f" width="22.792" height="2.431" transform="translate(239.513 293.631)"/><circle class="e" cx="5.167" cy="5.167" r="5.167" transform="translate(225.617 299.133) rotate(-80.78)"/><path class="f" d="M1966.971,1679.17h-12.365a3.847,3.847,0,0,0-3.847,3.847h0a3.847,3.847,0,0,0,3.847,3.847h12.365a3.848,3.848,0,0,0,3.847-3.847h0A3.847,3.847,0,0,0,1966.971,1679.17Zm10.117,2.4v2.885h35.22v-2.885Z" transform="translate(-1777.943 -1530.413)"/><path class="h" d="M1793,788.2a68.283,68.283,0,0,0,19.162,0v12.486s-14.78,1.808-14.544,1.808S1793,788.2,1793,788.2Z" transform="translate(-1634.159 -718.374)"/><path class="i" d="M1610.9,788.2h0a10.264,10.264,0,0,1-19.162,0h0a40.341,40.341,0,0,0-12.8,6.971l-6.763,5.471,5.332,8.808a1.726,1.726,0,0,0,2.562.443l2.455-1.982a1.654,1.654,0,0,1,2.673,1.013,98.908,98.908,0,0,1-.183,30.871,1.722,1.722,0,0,0,1.707,1.975h29.283a1.727,1.727,0,0,0,1.713-1.922c-1.292-11.576-1.8-22.374-.329-30.981a1.652,1.652,0,0,1,2.669-1l2.509,2.03a1.726,1.726,0,0,0,2.562-.443l5.333-8.808-6.763-5.471a40.362,40.362,0,0,0-12.8-6.976Z" transform="translate(-1432.901 -718.374)"/><path class="j" d="M1578.57,1411.59a.511.511,0,0,0,.511.511h1.855l4.285,8.593a.512.512,0,0,0,.457.284h10.238a.511.511,0,0,0,0-1.022h-9.922l-4.285-8.593a.51.51,0,0,0-.457-.283h-2.171a.511.511,0,0,0-.511.51Zm16.832,7.3,3.406-6.832h-15.345l3.407,6.832Zm-9.726,4.43a1.833,1.833,0,1,0,1.833-1.832,1.833,1.833,0,0,0-1.833,1.832Zm7.251,0a1.833,1.833,0,1,0,1.833-1.832,1.833,1.833,0,0,0-1.833,1.832Z" transform="translate(-1438.725 -1286.073)"/><circle class="k" cx="4.118" cy="4.118" r="4.118" transform="translate(155.481 128.48) rotate(-76.72)"/><path class="l" d="M1600.637,2581.858c8.63-1.311,18.531-.258,26.94-1.824,3.334-.62,6.252-1.626,9.617-2.215,14.064-2.457,31.1,4.012,45.013,1.391,9.582-1.805,13.049-5.285,25.895-.14,4.443,1.779,8.495,2.526,12.934,4.305H1594.29A37.275,37.275,0,0,1,1600.637,2581.858Z" transform="translate(-1453.053 -2348.135)"/><rect class="m" width="36.039" height="62.908" transform="translate(254.723 235.241) rotate(180)"/><path class="e" d="M2851.733,2004.122h-2.293v.612h2.293Zm0,1.705h-2.293v.611h2.293Zm0,7.776h-.989v.611h.989Zm0-6.019h-2.293v.611h2.293Zm0,3.461h-2.293v.611h2.293Zm0,1.705h-2.293v.611h2.293Zm0-3.462h-2.293v.611h2.293Zm0-13.846h-2.293v.611h2.293Zm0,1.757h-2.293v.611h2.293Zm0,5.167h-2.293v.611h2.293Zm0-3.462h-2.293v.611h2.293Zm0,1.757h-2.293v.611h2.293Zm-.989,11.848h.989v-.611h-.989Zm0-12.137h.989v-.611h-.989Zm0,1.756h.989v-.617h-.989Zm0-3.461h.989v-.611h-.989Zm0-1.757h.989v-.611h-.989Zm0-1.7h.989v-.611h-.989Zm0,10.384h.989v-.611h-.989Zm0,3.461h.989v-.611h-.989Zm0,1.705h.989v-.611h-.989Zm0-6.923h.989v-.611h-.989Zm.989-10.092h-2.293v.612h2.293Zm-.989,13.554h.989v-.611h-.989Zm.989-20.632h-2.293v.611h2.293Zm-.989-2h.989v-.611h-.989Zm0-10.385h.989v-.611h-.989Zm0,12.089h.989v-.611h-.989Zm0,1.757h.989v-.613h-.989Zm.989,3.7h-2.293v.612h2.293Zm-.989-12.382h.989v-.615h-.989Zm0-1.7h.989v-.611h-.989Zm0,5.167h.989v-.611h-.989Zm0-6.923h.989v-.611h-.989Zm0,15.6h.989v-.619h-.989Zm0-10.385h.989v-.611h-.989Zm0,8.628h.989v-.611h-.989Zm.989-6.63h-2.293v.611h2.293Zm0,1.705h-2.293v.611h2.293Zm-.989,8.387h.989v-.611h-.989Zm.989-3.169h-2.293v.611h2.293Zm0-1.757h-2.293v.611h2.293Zm0-8.628h-2.293v.611h2.293Zm0-3.461h-2.293v.611h2.293Zm0-1.757h-2.293v.611h2.293Zm0,6.922h-2.293v.612h2.293Zm0-3.461h-2.293v.611h2.293Zm0-5.167h-2.293v.611h2.293Zm-.989-5.616h.989v-.611h-.989Zm0-5.218h.989v-.611h-.989Zm0-1.705h.989v-.611h-.989Zm0-1.757h.989v-.611h-.989Zm0-1.7h.989v-.611h-.989Zm0-1.757h.989v-.611h-.989Zm0,10.385h.989v-.611h-.989Zm0-1.705h.989v-.611h-.989Zm0,5.167h.989v-.616h-.989Zm0,1.757h.989v-.611h-.989Zm0,1.705h.989v-.611h-.989Zm0-19.013h.989v-.611h-.989Zm.989,2h-2.293v.612h2.293Zm0,1.705h-2.293v.611h2.293Zm0,1.757h-2.293v.611h2.293Zm0-5.218h-2.293v.611h2.293Zm-2.293-1.705v.611h2.293v-.611Zm2.293,8.628h-2.293v.611h2.293Zm0,6.923h-2.293v.611h2.293Zm0-5.167h-2.293v.611h2.293Zm0,6.923h-2.293v.611h2.293Zm0,1.7h-2.293v.611h2.293Zm0-6.922h-2.293v.611h2.293Zm0,1.756h-2.293v.6h2.293Z" transform="translate(-2597.01 -1778.973)"/><path class="e" d="M2468.51,2004.706h2.293v-.612h-2.293Zm0,1.7h2.293v-.611h-2.293Zm0,7.776h.989v-.611h-.989Zm0-6.019h2.293v-.611h-2.293Zm0,3.461h2.293v-.611h-2.293Zm0,1.705h2.293v-.611h-2.293Zm0-3.462h2.293v-.611h-2.293Zm0-13.845h2.293v-.611h-2.293Zm0,1.756h2.293v-.611h-2.293Zm0,5.167h2.293v-.611h-2.293Zm0-3.462h2.293v-.611h-2.293Zm0,1.757h2.293v-.611h-2.293Zm.989,10.625h-.989v.611h.989Zm0-12.137h-.989v.611h.989Zm0,1.756h-.989v.611h.989Zm0-3.461h-.989v.611h.989Zm0-1.757h-.989v.611h.989Zm0-1.7h-.989v.611h.989Zm0,10.384h-.989v.611h.989Zm0,3.461h-.989v.611h.989Zm0,1.705h-.989v.611h.989Zm0-6.923h-.989v.611h.989Zm-.989-8.869h2.293v-.612h-2.293Zm.989,12.33h-.989v.611h.989Zm-.989-19.41h2.293v-.611h-2.293Zm.989-3.22h-.989v.611h.989Zm0-10.384h-.989v.611h.989Zm0,12.089h-.989v.611h.989Zm0,1.757h-.989v.611h.989Zm-.989,4.925h2.293v-.612h-2.293Zm.989-13.608h-.989v.611h.989Zm0-1.7h-.989v.611h.989Zm0,5.167h-.989v.611h.989Zm0-6.923h-.989v.611h.989Zm0,15.6h-.989v.611h.989Zm0-10.384h-.989v.611h.989Zm0,8.628h-.989v.611h.989Zm-.989-5.4h2.293v-.611h-2.293Zm0,1.705h2.293v-.611h-2.293Zm.989,7.164h-.989v.611h.989Zm-.989-1.949h2.293v-.611h-2.293Zm0-1.757h2.293v-.611h-2.293Zm0-8.628h2.293v-.611h-2.293Zm0-3.461h2.293v-.611h-2.293Zm0-1.757h2.293v-.611h-2.293Zm0,6.923h2.293v-.612h-2.293Zm0-3.462h2.293v-.611h-2.293Zm0-5.167h2.293v-.611h-2.293Zm.989-6.838h-.989v.611h.989Zm0-5.218h-.989v.611h.989Zm0-1.705h-.989v.611h.989Zm0-1.757h-.989v.611h.989Zm0-1.7h-.989v.611h.989Zm0-1.757h-.989v.611h.989Zm0,10.385h-.989v.611h.989Zm0-1.705h-.989v.611h.989Zm0,5.167h-.989v.611h.989Zm0,1.757h-.989v.611h.989Zm0,1.705h-.989v.611h.989Zm0-19.013h-.989v.611h.989Zm-.989,3.221h2.293v-.612h-2.293Zm0,1.7h2.293v-.611h-2.293Zm0,1.757h2.293v-.612h-2.293Zm0-5.218h2.293v-.611h-2.293Zm0-2.317v.611h2.293v-.611Zm0,9.239h2.293v-.611h-2.293Zm0,6.923h2.293v-.611h-2.293Zm0-5.167h2.293v-.611h-2.293Zm0,6.923h2.293v-.611h-2.293Zm0,1.7h2.293v-.611h-2.293Zm0-6.922h2.293v-.611h-2.293Zm0,1.757h2.293v-.612h-2.293Z" transform="translate(-2249.826 -1778.946)"/><rect class="m" width="38.962" height="10.837" transform="translate(256.185 235.241) rotate(180)"/><path class="e" d="M2490.972,2522.844H2452.01l1.462-.994h36.039Z" transform="translate(-2234.788 -2298.44)"/><rect class="e" width="41.768" height="1.18" transform="translate(257.588 204.966) rotate(180)"/><rect class="e" width="36.039" height="1.18" transform="translate(254.723 179.244) rotate(180)"/><path class="m" d="M2477.939,2313.66c-2.419,0-1.481,3.85-2.865,3.85h-36.039c-1.384,0-.443-3.85-2.865-3.85Z" transform="translate(-2220.351 -2108.693)"/><rect class="e" width="39.712" height="2.902" transform="translate(256.56 172.332) rotate(180)"/><rect class="e" width="36.039" height="1.316" transform="translate(254.723 173.649) rotate(180)"/><rect class="e" width="26.424" height="22.817" transform="translate(225.295 235.241) rotate(-90)"/><rect class="n" width="36.039" height="1.316" transform="translate(254.723 210.133) rotate(180)"/><rect class="o" width="14.613" height="8.086" transform="translate(250.419 185.81) rotate(90)"/><rect class="p" width="6.526" height="13.053" transform="translate(249.639 199.644) rotate(180)"/><path class="q" d="M2744.973,2106.24l5.7,13.053h.111v-4.681l-3.657-8.372Zm3.814,13.053-4.528-10.365v1.994l3.657,8.372Zm-4.528-13.053v1.548l5.027,11.5h.871l-5.7-13.053Z" transform="translate(-2501.147 -1919.649)"/><rect class="o" width="6.526" height="0.555" transform="translate(249.639 193.673) rotate(180)"/><rect class="o" width="14.613" height="8.086" transform="translate(240.746 185.81) rotate(90)"/><rect class="p" width="6.526" height="13.053" transform="translate(239.967 199.644) rotate(180)"/><path class="q" d="M2635.793,2106.24l5.7,13.053h.112v-4.681l-3.657-8.372Zm3.814,13.053-4.528-10.365v1.994l3.657,8.372Zm-4.528-13.053v1.548l5.026,11.5h.871l-5.7-13.053Z" transform="translate(-2401.639 -1919.649)"/><rect class="o" width="6.526" height="0.555" transform="translate(239.967 193.673) rotate(180)"/><rect class="o" width="14.613" height="8.086" transform="translate(231.074 185.81) rotate(90)"/><rect class="p" width="6.526" height="13.053" transform="translate(230.295 199.644) rotate(180)"/><path class="q" d="M2526.608,2106.24l5.7,13.053h.112v-4.681l-3.657-8.372Zm3.81,13.053-4.528-10.365v1.994l3.657,8.372Zm-4.528-13.053v1.548l5.026,11.5h.871l-5.7-13.053Z" transform="translate(-2302.123 -1919.649)"/><rect class="o" width="6.526" height="0.555" transform="translate(230.295 193.673) rotate(180)"/><rect class="o" width="13.912" height="6.204" transform="translate(241.88 224.939) rotate(-90)"/><rect class="p" width="12.228" height="4.52" transform="translate(242.722 224.096) rotate(-90)"/><rect class="o" width="4.52" height="0.78" transform="translate(247.242 215.477) rotate(180)"/><rect class="o" width="13.912" height="6.204" transform="translate(225.295 224.939) rotate(-90)"/><rect class="p" width="12.228" height="4.52" transform="translate(226.137 224.096) rotate(-90)"/><rect class="o" width="4.52" height="0.78" transform="translate(230.657 215.477) rotate(180)"/><path class="e" d="M2731.122,2066.4h8.086l.421-3.017H2730.7Z" transform="translate(-2488.788 -1880.586)"/><path class="o" d="M2768.01,2057.884h2.117l.11-3.844H2767.9Z" transform="translate(-2522.693 -1872.074)"/><path class="e" d="M2621.942,2066.4h8.085l.422-3.017h-8.929Z" transform="translate(-2389.281 -1880.586)"/><path class="o" d="M2658.831,2057.884h2.117l.11-3.844h-2.338Z" transform="translate(-2423.185 -1872.074)"/><path class="e" d="M2512.762,2066.4h8.085l.422-3.017h-8.929Z" transform="translate(-2289.773 -1880.586)"/><path class="o" d="M2549.65,2057.884h2.117l.111-3.844h-2.338Z" transform="translate(-2323.677 -1872.074)"/><rect class="p" width="6.526" height="12.618" transform="translate(239.967 224.424) rotate(180)"/><rect class="o" width="21.369" height="8.086" transform="translate(240.747 211.026) rotate(90)"/><rect class="p" width="6.526" height="12.586" transform="translate(239.967 224.392) rotate(180)"/><rect class="m" width="6.526" height="7.192" transform="translate(239.967 231.615) rotate(180)"/><rect class="o" width="6.526" height="0.78" transform="translate(239.967 224.814) rotate(180)"/><rect class="o" width="6.526" height="0.78" transform="translate(239.967 215.414) rotate(180)"/><rect class="o" width="9.031" height="0.78" transform="translate(236.313 224.424) rotate(-90)"/><rect class="o" width="0.801" height="2.033" rx="0.4" transform="translate(234.708 228.083) rotate(180)"/><path class="m" d="M2641.23,2554.492a.322.322,0,1,0,.321-.322A.322.322,0,0,0,2641.23,2554.492Z" transform="translate(-2407.244 -2327.897)"/><rect class="m" width="0.138" height="0.437" transform="translate(234.377 227.657) rotate(180)"/><rect class="o" width="10.864" height="1.423" transform="translate(242.136 233.818) rotate(180)"/><rect class="o" width="12.424" height="1.423" transform="translate(242.915 235.241) rotate(180)"/><rect class="f" width="12.426" height="0.229" transform="translate(242.917 235.241) rotate(180)"/><rect class="f" width="10.866" height="0.229" transform="translate(242.137 233.818) rotate(180)"/><path class="m" d="M2903.517,2009.577h5.5a.788.788,0,0,1,.787-.787v-22.574a.787.787,0,0,1-.787-.786h-5.5a.787.787,0,0,1-.786.786v22.574A.787.787,0,0,1,2903.517,2009.577Z" transform="translate(-2645.579 -1809.542)"/><path class="e" d="M2918.182,2019.239a2.613,2.613,0,0,1,1.329-1.329v-19.4a2.612,2.612,0,0,1-1.329-1.329h-2.323a2.61,2.61,0,0,1-1.329,1.329v19.4a2.611,2.611,0,0,1,1.329,1.329Z" transform="translate(-2656.333 -1820.251)"/><rect class="r" width="2.428" height="0.638" transform="translate(257.151 180.64) rotate(180)"/><path class="r" d="M2875.32,2027.365h0a.638.638,0,0,0,.638-.638v-.469a.638.638,0,0,0-.638-.638h0Z" transform="translate(-2620.597 -1846.171)"/><rect class="r" width="2.428" height="0.638" transform="translate(257.151 195.921) rotate(180)"/><path class="r" d="M2875.32,2199.854h0a.638.638,0,0,0,.638-.639v-.468a.638.638,0,0,0-.638-.638h0Z" transform="translate(-2620.597 -2003.381)"/><path class="s" d="M2212.993,2324.973a6.779,6.779,0,0,0-.374-7.076,4.475,4.475,0,0,1-1.136-2.29,5.018,5.018,0,0,1,.882-2.159,5.21,5.21,0,0,0-3.332-7.382c-2.619-.678-5.634,1.016-5,4.466.472,2.569,2.5,3.792,2.081,5.431-.272,1.063-1.458,1.539-2.364,2.153a5.847,5.847,0,0,0-2.255,6.346C2203.242,2330.26,2210.572,2328.97,2212.993,2324.973Z" transform="translate(-2006.262 -2101.639)"/><rect class="t" width="0.176" height="24.389" transform="translate(201.801 208.107)"/><rect class="t" width="0.176" height="2.149" transform="translate(200.368 216.641) rotate(-42.58)"/><path class="t" d="M2232.361,2496.881l1.882-1.917-.126-.124-1.766,1.8-4.406-3.76-.115.134Z" transform="translate(-2030.468 -2272.037)"/><rect class="t" width="3.478" height="0.176" transform="matrix(0.696, -0.718, 0.718, 0.696, 201.826, 211.234)"/><path class="e" d="M1650.58,2003.9h61.329v-2.047H1650.58Zm0,5.587h36.248v-2.047H1650.58Zm0-22.35h61.329v-2.047H1650.58Zm0-7.635v2.047h61.329V1979.5Zm0,18.809h61.329v-2.047H1650.58Zm0-5.587h61.329v-2.047H1650.58Z" transform="translate(-1504.356 -1804.137)"/><path class="u" d="M847.406,3032.28a1,1,0,0,0-1.005,1.005v66.569a1.005,1.005,0,0,0,2.011,0v-66.569A1,1,0,0,0,847.406,3032.28Z" transform="translate(-771.418 -2763.651)"/><path class="u" d="M777.345,2148.46c-.555,0-1.005.965-1.005,2.154v142.57c0,1.19.45,2.154,1.005,2.154s1-.964,1-2.154v-142.57C778.347,2149.425,777.9,2148.46,777.345,2148.46Z" transform="translate(-707.564 -1958.129)"/><path class="v" d="M213.055,2902.811c-15.037-6.644-26.191-7.176-34.461-4.189a27.581,27.581,0,0,1,3.509,1.051c2.826,1.056,6.12,3.173,5.678,6.644a5.248,5.248,0,0,1-2.746,3.956,5.387,5.387,0,0,1-3.824.23,23.208,23.208,0,0,1-7.91-4.543c-1.026-.808-2.023-1.651-3.012-2.5-4.857,4.14-8.185,9.815-10.462,15.777q1.023-.292,2.073-.484c2.937-.532,6.476-.177,8.28,2.523,1.595,2.392,1.987,6.29-.75,8.04-2.168,1.386-5.021,1.276-7.442.717a15.62,15.62,0,0,1-3.64-1.274,11.535,11.535,0,0,1-1.173-.687,92.248,92.248,0,0,0-2.215,21.761,52.194,52.194,0,0,0,15.882,3.354c-.032-.763-.049-1.526-.034-2.293a23.292,23.292,0,0,1,.354-4.13,8.452,8.452,0,0,1,1.451-3.583,4.034,4.034,0,0,1,3.66-1.6,3.446,3.446,0,0,1,2.757,2.894,9.376,9.376,0,0,1-.021,3.32,30.557,30.557,0,0,1-.743,3.472c-.184.695-.382,1.385-.585,2.074a96.134,96.134,0,0,0,16.361-1.8l-.133-.189c-2.369-3.437-4.65-7.493-4.585-11.8a15.448,15.448,0,0,1,.773-4.77,5.133,5.133,0,0,1,2.9-3.4,3.919,3.919,0,0,1,2.863.171,7.054,7.054,0,0,1,.82.477l.118.075c.025.015.05.03.074.046.039.025.077.049.115.075a5.125,5.125,0,0,1,.8.759,8.484,8.484,0,0,1,1.683,3.318,41.288,41.288,0,0,1,1.357,9.458c.081,1.384.135,2.768.2,4.153a78.684,78.684,0,0,0,21.952-9.334c-.308-.478-.637-.941-.98-1.394-.709-.932-1.472-1.818-2.263-2.679-.2-.214-.4-.427-.594-.639l-.014-.016c-.021-.022-.043-.044-.065-.067l-.255-.266c-.391-.407-.784-.811-1.176-1.217-.633-.653-1.268-1.3-1.852-2a14.035,14.035,0,0,1-2.231-3.461,3.975,3.975,0,0,1,.413-4.324,4.471,4.471,0,0,1,2.675-1.278,7.6,7.6,0,0,1,6.542,2.118,18.412,18.412,0,0,1,4.408,8.1q.443,1.486.773,3.012C239.037,2926.659,238.5,2914.06,213.055,2902.811Zm-45.47,34.279a4.364,4.364,0,0,1-3.8,1.063.981.981,0,0,1-.266-.078c-.206-.01-.414-.03-.62-.06a1.048,1.048,0,0,1-.789-1.457,3.584,3.584,0,0,1,5.112-1.071.871.871,0,0,1,.564.7A1,1,0,0,1,167.585,2937.09Zm13.238-17.02a1.927,1.927,0,0,1-1.919.013,13.4,13.4,0,0,1-3.314-2.481c-.761-.7-1.471-1.446-2.228-2.146a1.075,1.075,0,0,1-.26-.367,1.04,1.04,0,0,1,.481-2.016,14.351,14.351,0,0,1,4.481,1.721c1.247.692,2.867,1.665,3.3,3.131A1.918,1.918,0,0,1,180.822,2920.07Zm3.494,16.821a1.1,1.1,0,0,1-.648.809,1.115,1.115,0,0,1-.792,0,.933.933,0,0,1-.873-.422,3.6,3.6,0,0,1-.325-4.024c.293-.514,1.1-.911,1.607-.38a3.592,3.592,0,0,1,1.031,4.017Zm23.1-8.282a1.086,1.086,0,0,1-1.411.094,18.786,18.786,0,0,1-1.488-1.46c-.729-.766-1.44-1.549-2.113-2.366a16.376,16.376,0,0,1-1.45-1.985,2.951,2.951,0,0,1-.6-2.023c.123-.589,1.7-2.185,2.286-2.136,1.758.144,2.856,1.814,3.472,3.294a13.715,13.715,0,0,1,.684,2.131,10.887,10.887,0,0,1,1.152,3.431A.9.9,0,0,1,207.415,2928.608Z" transform="translate(-141.209 -2640.25)"/><path class="u" d="M925.725,2249.72a1,1,0,0,0-1.005,1.005v133.444a1.005,1.005,0,1,0,2.011,0V2250.725A1,1,0,0,0,925.725,2249.72Z" transform="translate(-842.799 -2050.418)"/><path class="w" d="M91.388,1549.353c-13.207-15.817-25.448-22.6-36.4-23.843a34.4,34.4,0,0,1,3.359,3.129c2.589,2.755,5.114,6.963,2.69,10.618a6.574,6.574,0,0,1-5.279,2.923,6.768,6.768,0,0,1-4.429-1.865c-2.869-2.55-4.734-6.072-6.365-9.5-.7-1.478-1.357-2.979-2-4.485-7.756,1.955-14.647,6.485-20.515,11.919.873.161,1.741.361,2.6.608,3.595,1.033,7.373,3.4,7.9,7.433.469,3.572-1.258,8.169-5.307,8.616-3.205.354-6.351-1.353-8.757-3.325a19.519,19.519,0,0,1-3.383-3.455,14.63,14.63,0,0,1-.936-1.423A115.647,115.647,0,0,0,0,1569.927a65.564,65.564,0,0,0,15.99,12.589c.388-.874.8-1.742,1.24-2.6a29.628,29.628,0,0,1,2.687-4.446,10.591,10.591,0,0,1,3.621-3.221,5.056,5.056,0,0,1,5,.235,4.316,4.316,0,0,1,1.491,4.784,11.761,11.761,0,0,1-1.868,3.721,37.932,37.932,0,0,1-2.762,3.488c-.592.679-1.2,1.345-1.808,2.007a120.448,120.448,0,0,0,19.383,7.061c-.014-.1-.03-.191-.044-.286-.753-5.178-1.063-11,1.4-15.8a19.377,19.377,0,0,1,3.519-4.931c1.308-1.312,3.209-2.481,5.138-2.207a4.907,4.907,0,0,1,3.123,1.782,8.622,8.622,0,0,1,.657.99c.033.052.071.116.089.15s.039.061.058.093c.029.049.059.1.089.148a6.388,6.388,0,0,1,.473,1.3,10.667,10.667,0,0,1,.05,4.662,51.812,51.812,0,0,1-3.727,11.382c-.679,1.595-1.386,3.185-2.086,4.774,10.583,2.1,21.017,2.746,29.849,1.7-.081-.709-.193-1.41-.327-2.109-.276-1.44-.646-2.86-1.056-4.267-.1-.35-.208-.7-.314-1.048a.079.079,0,0,0-.007-.025l-.035-.112c-.046-.147-.089-.294-.139-.443q-.32-1.012-.647-2.021c-.347-1.084-.7-2.168-.969-3.278a17.582,17.582,0,0,1-.586-5.127c.112-1.885.96-3.937,2.866-4.63a5.635,5.635,0,0,1,3.715.05,9.517,9.517,0,0,1,6.175,6.013c1.3,3.693,1.118,7.738.459,11.544q-.331,1.913-.8,3.809C107.347,1590.578,113.741,1576.123,91.388,1549.353Zm-70.12,13.273a5.477,5.477,0,0,1-4.858-.912,1.173,1.173,0,0,1-.252-.233c-.226-.127-.449-.266-.666-.413a1.315,1.315,0,0,1-.079-2.076c2.215-1.556,4.982-.485,6.339,1.635a1.089,1.089,0,0,1,.246,1.1A1.25,1.25,0,0,1,21.268,1562.625Zm24.324-11.775a2.414,2.414,0,0,1-2.162-1.05,16.8,16.8,0,0,1-2.349-4.625c-.468-1.206-.85-2.442-1.312-3.649a1.349,1.349,0,0,1-.089-.556,1.3,1.3,0,0,1,1.66-2,17.992,17.992,0,0,1,4.08,4.423c1.016,1.47,2.3,3.462,1.968,5.349a2.4,2.4,0,0,1-1.8,2.107Zm-5.413,20.841a1.372,1.372,0,0,1-1.177.549,1.4,1.4,0,0,1-.886-.443,1.166,1.166,0,0,1-.747-.958,4.514,4.514,0,0,1,1.868-4.7c.615-.414,1.737-.414,2.016.465a4.506,4.506,0,0,1-1.075,5.089Zm30.556,3.514a1.357,1.357,0,0,1-1.638-.679,23.62,23.62,0,0,1-.862-2.466c-.393-1.266-.758-2.541-1.063-3.832a20.985,20.985,0,0,1-.527-3.036,3.664,3.664,0,0,1,.454-2.6c.464-.594,3.118-1.512,3.753-1.131,1.9,1.138,2.2,3.625,2.073,5.629a17.275,17.275,0,0,1-.415,2.775,13.689,13.689,0,0,1-.61,4.5A1.128,1.128,0,0,1,70.735,1575.206Z" transform="translate(0 -1390.366)"/><path class="x" d="M620.715,2164.542q.426-1.953.993-3.864c1.122-3.795,2.8-7.592,5.661-10.395a9.752,9.752,0,0,1,8.4-2.72,5.742,5.742,0,0,1,3.435,1.641c1.436,1.5,1.284,3.77.532,5.553a18,18,0,0,1-2.866,4.442c-.749.9-1.565,1.73-2.377,2.569q-.756.781-1.511,1.563l-.328.342c-.027.029-.055.057-.081.089l-.019.019c-.256.273-.511.545-.764.82-1.015,1.106-2,2.243-2.907,3.441q-.664.87-1.258,1.788c7.64,4.967,17.518,9.107,28.189,11.986.078-1.778.148-3.556.251-5.332a53.037,53.037,0,0,1,1.743-12.146,10.874,10.874,0,0,1,2.162-4.26,6.319,6.319,0,0,1,1.022-.975c.048-.033.1-.065.147-.1l.095-.059.151-.1a8.952,8.952,0,0,1,1.053-.611,5.026,5.026,0,0,1,3.677-.22c1.9.62,3.115,2.562,3.721,4.361a19.878,19.878,0,0,1,.994,6.125c.082,5.524-2.846,10.732-5.889,15.149-.056.082-.113.162-.17.243a123.415,123.415,0,0,0,21.008,2.312c-.26-.886-.515-1.772-.75-2.664a38.85,38.85,0,0,1-.955-4.457,12.014,12.014,0,0,1-.027-4.264,4.424,4.424,0,0,1,3.544-3.716,5.17,5.17,0,0,1,4.7,2.055,10.807,10.807,0,0,1,1.86,4.6,30.392,30.392,0,0,1,.45,5.3c.019.984,0,1.965-.043,2.945a67.156,67.156,0,0,0,20.4-4.305,118.768,118.768,0,0,0-2.847-27.943,15,15,0,0,1-1.506.886,20.042,20.042,0,0,1-4.675,1.636c-3.1.719-6.77.859-9.553-.921-3.515-2.249-3.012-7.255-.964-10.323,2.316-3.464,6.86-3.923,10.631-3.24.9.162,1.787.372,2.663.62-2.923-7.655-7.2-14.942-13.434-20.259-1.271,1.093-2.551,2.177-3.869,3.214-3.053,2.4-6.364,4.792-10.157,5.833a6.919,6.919,0,0,1-4.912-.3,6.734,6.734,0,0,1-3.522-5.079c-.568-4.457,3.661-7.176,7.29-8.532a35.466,35.466,0,0,1,4.507-1.349c-10.623-3.829-24.945-3.154-44.255,5.38C607.676,2135.773,606.987,2151.951,620.715,2164.542Zm77.762-.354a1.116,1.116,0,0,1,.724-.9c2.208-1.329,5.235-1.063,6.565,1.375a1.347,1.347,0,0,1-1.014,1.87c-.266.039-.531.063-.8.077a1.235,1.235,0,0,1-.338.1,5.6,5.6,0,0,1-4.872-1.369,1.256,1.256,0,0,1-.267-1.155Zm-17.431-23.449c.555-1.882,2.635-3.131,4.235-4.019a18.442,18.442,0,0,1,5.754-2.215,1.336,1.336,0,0,1,.62,2.591,1.383,1.383,0,0,1-.332.47c-.974.9-1.884,1.861-2.861,2.756a17.188,17.188,0,0,1-4.252,3.182,2.47,2.47,0,0,1-2.464-.017,2.443,2.443,0,0,1-.7-2.746Zm-3.892,21.35a5.332,5.332,0,0,1,1.423-2.162c.656-.681,1.683-.172,2.064.487a4.622,4.622,0,0,1-.418,5.168,1.2,1.2,0,0,1-1.122.54,1.358,1.358,0,0,1-1.848-1.039,5.254,5.254,0,0,1-.1-2.99Zm-30.252-8.953a13.985,13.985,0,0,1,1.481-4.406,17.739,17.739,0,0,1,.878-2.737c.79-1.9,2.2-4.045,4.459-4.23.756-.062,2.777,1.986,2.934,2.746a3.756,3.756,0,0,1-.765,2.6,21.045,21.045,0,0,1-1.86,2.549c-.863,1.049-1.772,2.055-2.713,3.039a23.993,23.993,0,0,1-1.911,1.875,1.389,1.389,0,0,1-1.813-.121,1.152,1.152,0,0,1-.691-1.308Z" transform="translate(-558.032 -1926.473)"/><path class="g" d="M690.409,3829H660.3l-6.228-30.211h42.568Z" transform="translate(-596.126 -3462.257)"/><path class="y" d="M646.03,3747.751H599.993c-1.852,0-3.353-1.111-3.353-2.48h0c0-1.37,1.506-2.481,3.353-2.481H646.03c1.852,0,3.353,1.11,3.353,2.481h0C649.383,3746.64,647.882,3747.751,646.03,3747.751Z" transform="translate(-543.784 -3411.218)"/><path class="z" d="M1007.7,4172.667c0,3.915-26.063,6.024-73.4,6.024-79.063,0-85.714-3.173-85.714-7.088s37.912-2.125,85.251-2.125S1007.7,4168.753,1007.7,4172.667Z" transform="translate(-773.405 -3799.734)"/><path class="z" d="M2021.455,4268.752l-14.345-9.692h8.9l11.4,9.692Z" transform="translate(-1829.301 -3881.752)"/><path class="z" d="M1430.845,4263.566l-3.195-4.506h10.826l3.855,7.794Z" transform="translate(-1301.175 -3881.752)"/><path class="aa" d="M1039.542,3592.857c2.362-5.5.858-12.58-4.3-15.983-3.667-2.419-8.386-2.712-12.728-3.728-15.955-3.733-27.08-17.386-42.026-23.844-12.892-5.571-28.735-5.185-40.8,1.842s-19.638,20.788-17.806,34.054c.4,2.883,2.565,6.991,4.716,10.82a18.6,18.6,0,0,0,16.278,9.259h78.386a18.767,18.767,0,0,0,14.363-6.505A23.95,23.95,0,0,0,1039.542,3592.857Z" transform="translate(-839.967 -3231.372)"/><path class="ab" d="M1088.075,3602.1c-3.987,2.953-7.488,7.509-6.4,12.184.7,3.006,3.179,5.387,5.944,7.019,4.544,2.681,9.958,3.74,15.3,4.194s10.719.354,16.043.95c8.289.93,16.245,3.532,24.322,5.523s16.566,3.377,24.747,1.828a4.7,4.7,0,0,0,2.93-1.369c1.253-1.607-.126-3.866-1.7-5.195-4.451-3.75-10.473-5.227-16.123-7.045a108.6,108.6,0,0,1-26.339-12.606,105.213,105.213,0,0,1-11.605-8.832c-1.457-1.278-2.78-3.1-4.765-3.528-2.045-.443-4.9.133-6.929.462A35.578,35.578,0,0,0,1088.075,3602.1Z" transform="translate(-985.665 -3276.576)"/><path class="ac" d="M2164.264,4203.853c.552.829,1.291,1.756,2.285,1.732,1.716-.041,1.841-2.489,1.411-4.139l-1.391-5.336-5.39,1.576A22.375,22.375,0,0,0,2164.264,4203.853Z" transform="translate(-1969.722 -3824.378)"/><path class="ad" d="M1373.216,3530.4c-4.341-4.791-31.449-10.746-44.2-14.646-9.522-2.914-19.321-4.552-20.772,8.309a14.987,14.987,0,0,0,6.951,14.165c5.176,3.179,11.683,2.881,17.745,2.481l30.2-2c1.1,15.123,13.957,20.537,19.711,37.288l8.645-1.763C1386.251,3566.348,1375.372,3533.163,1373.216,3530.4Z" transform="translate(-1192.268 -3202.434)"/><path class="ae" d="M1520.988,4143.555c-.443.893-.874,1.995-.354,2.845.893,1.466,3.077.35,4.29-.848l3.926-3.872-5.29-3.16Q1522.248,4141.023,1520.988,4143.555Z" transform="translate(-1385.705 -3771.891)"/><path class="ad" d="M1212.364,3538.239c5.176,3.178,11.683,2.881,17.745,2.48l35.9-2.377c1.91-.126,4.054-.369,5.245-1.868,1.391-1.749.718-4.484-.866-6.061s-3.809-2.285-5.951-2.939l-38.252-11.708c-9.522-2.914-19.321-4.552-20.771,8.309A14.987,14.987,0,0,0,1212.364,3538.239Z" transform="translate(-1098.547 -3202.443)"/><path class="ad" d="M1591.639,3715.952c-2.636-8.162-19.078,7.948-21.948,12.284a259.088,259.088,0,0,0-13.61,23.08l6.419,5.253c4.21-8.482,12.606-15.641,19.474-22.413,2.257-2.226,4.561-4.518,5.935-7.407S1592.109,3717.408,1591.639,3715.952Z" transform="translate(-1418.228 -3384.686)"/><path class="af" d="M1459.3,3062.932c-1.074-3.752-1.9-8.029-.656-11.848.387-1.193.462-1.384,1.528-.792a10.93,10.93,0,0,1,2.271,2.009,24.722,24.722,0,0,1,3.485,4.673,45.367,45.367,0,0,1,2.672,5.477l-8.116,4.178Q1459.84,3064.8,1459.3,3062.932Z" transform="translate(-1328.857 -2779.772)"/><path class="ac" d="M1493.963,3190.88c.521,1.24,1.013,2.5,1.506,3.756l8.062,20.705a3.237,3.237,0,0,1,.315,2.037,2.2,2.2,0,0,1-2.746,1.2,6.025,6.025,0,0,1-2.613-2,65.422,65.422,0,0,1-12.637-21.518Z" transform="translate(-1354.219 -2908.201)"/><path class="ae" d="M1650.894,3200.419c-.152-.736-.486-1.619-1.234-1.7-.709-.08-1.23.631-1.573,1.259-2.889,5.3-6.6,22.485-5.04,24.707,1.452,2.073,3.22,2.175,4.58.062C1650.4,3220.44,1651.506,3203.364,1650.894,3200.419Z" transform="translate(-1497.156 -2915.338)"/><path class="ag" d="M1612.218,3078.116h5.955a.906.906,0,0,0,.816-.638l3.637-12.64a.466.466,0,0,0-.459-.638h-5.955a.906.906,0,0,0-.816.638l-3.632,12.64A.463.463,0,0,0,1612.218,3078.116Z" transform="translate(-1468.954 -2792.744)"/><path class="ah" d="M1611.739,3077.478l3.632-12.64a.906.906,0,0,1,.816-.638h.635a.908.908,0,0,0-.817.638l-3.632,12.64a.467.467,0,0,0,.46.638h-.635A.466.466,0,0,1,1611.739,3077.478Z" transform="translate(-1468.933 -2792.744)"/><path class="ae" d="M1675.34,3136.817a5.507,5.507,0,0,0-1.343-4.467,5.6,5.6,0,0,0-3.505-1.452c-.558-.049-1.265.053-1.437.587-.152.475.236.931.437,1.389.455,1.042-.078,2.221-.206,3.35a4.7,4.7,0,0,0,1.063,3.517c.643.766,2.458,2.133,3.512,1.45C1674.837,3140.558,1675.231,3137.881,1675.34,3136.817Z" transform="translate(-1521.162 -2853.524)"/><path class="af" d="M1205.9,3023.541c.652,4.872,2.523,9.592,2.444,14.5a18.685,18.685,0,0,1-5.809,13.142c-2.209,2.076-5.244,4.435-4.453,7.362.709,2.634,4,3.413,6.715,3.721,5.91.671,12.652,1.086,17-2.972,2.662-2.486,3.814-6.161,4.662-9.7a98.21,98.21,0,0,0,2.622-19.147c.206-5.493-.16-11.345-3.317-15.842-3.145-4.482-6.674-7.453-11.821-5.874C1208.089,3014.476,1205.25,3018.711,1205.9,3023.541Z" transform="translate(-1091.825 -2741.797)"/><path class="ai" d="M2161.195,4241.24c.335.587,1.882.862,2.52.886.5.021,2.811-1.031,3.31-.859.36.124,1.7,4.941,3.36,5.962a39.359,39.359,0,0,0,5.274,2.344,5.748,5.748,0,0,1,1.739,1.038,2.087,2.087,0,0,1,.738,1.749,1.016,1.016,0,0,1-.052.15h-10.875c-.315-.371-.6-.774-.877-1.17l-2.984-4.271c-.313,1.556-.585,3.379-.886,5.441h-1.217C2160.861,4250.852,2159.789,4242.963,2161.195,4241.24Z" transform="translate(-1969.095 -3865.511)"/><path class="ad" d="M1465.236,4197.583a11.789,11.789,0,0,1,1.465-3.373,5.88,5.88,0,0,1,2.666-2.33c.007.634.279,1.595.859,1.854.459.2,3.151.131,3.526.463.252.225-.823,4.319-.138,6.081,0,0,2.453,1.861,3.721,2.747a4.626,4.626,0,0,1,1.355,1.3,1.816,1.816,0,0,1,.128,1.8,1.312,1.312,0,0,1-.1.134l-9.349-1.714-1.275-.5a12.414,12.414,0,0,1-.209-1.34l-.56-4.81a18.638,18.638,0,0,0-2.454,4.881l-1.13-.443Z" transform="translate(-1334.068 -3820.524)"/><path class="ac" d="M1379.129,2884.865c.455-.859,5.45,1.716,5.747,2.333s.611,7.594,1.683,11.95c.23.94-9.086-1.938-8.425-3.076C1379.2,2894.226,1380.3,2887.19,1379.129,2884.865Z" transform="translate(-1256.016 -2629.138)"/><path class="ae" d="M1382.77,2758.317c-1.726-7.158-11.517-5.648-13.841-4.935s-2.385,4-2.609,6.425a6.1,6.1,0,0,0,1.292,4.164c.855,1.141,4.578,2.86,4.789,2.9,1.382,2.381,3.632,5.105,5.913,5.073a3.393,3.393,0,0,0,2.569-1.506,9.887,9.887,0,0,0,1.257-2.806A16.97,16.97,0,0,0,1382.77,2758.317Z" transform="translate(-1245.258 -2508.878)"/><path class="aj" d="M1343.191,2723.709a7.111,7.111,0,0,1-1.683-3.58,6.679,6.679,0,0,1,1.207-4.485c1.577-2.344,5.649-5.368,8.94-5.435,3.515-.072,9.552,3.429,8.979,7.778-.172,1.3-.886,1.31-2.131,1.726-1.64.548-3.841.926-5.2,1.993-1.628,1.277-.9,4.356-4.234,5.357-1.077.323-2.183,2.225-2.9,3.7C1345.316,2729.8,1344.016,2724.705,1343.191,2723.709Z" transform="translate(-1222.626 -2470.112)"/><path class="aj" d="M1260.188,2848.539c-.314,1.34.16,2.739.089,4.114-.177,3.2-3.165,5.507-4.164,8.548a4.836,4.836,0,0,0,.1,3.6,2.935,2.935,0,0,0,3,1.683c1.339-.242,2.2-1.547,2.707-2.81a10.7,10.7,0,0,1,1.772-3.641c1.447-1.52,3.952-1.659,5.345-3.228,1.343-1.513,2.343-5.714,2.343-8.814,0-5.977-1.916-11.428-4.784-10.571-1.711.514-2.2,3.632-2.658,5C1263.154,2844.751,1260.741,2846.177,1260.188,2848.539Z" transform="translate(-1144.561 -2585.975)"/><path class="ae" d="M1406.873,2866.059a1.221,1.221,0,0,0-.319.628,2.812,2.812,0,0,0,2.165,3.4,1.18,1.18,0,0,0,.864-.089c.872-.531.43-2.38.011-3.1C1409.159,2866.156,1407.615,2865.368,1406.873,2866.059Z" transform="translate(-1281.88 -2611.914)"/><path class="af" d="M1318.842,3079.943a14.2,14.2,0,0,1,5.019-7.5,2.257,2.257,0,0,1,2.094-.52,2.355,2.355,0,0,1,1.1,1.721c1.13,4.507.491,9.226-.307,13.825l-9.05-1.417A31.974,31.974,0,0,1,1318.842,3079.943Z" transform="translate(-1200.966 -2799.685)"/><path class="ae" d="M1303.448,3235.463c.081-.983.164-1.969.266-2.953l9.05,1.417q-.114.66-.231,1.318-1.225,6.9-2.452,13.8c-.307,1.725-.266,3.8-1.817,4.923a3.558,3.558,0,0,1-3.927.221,4.632,4.632,0,0,1-1.844-3.057,13.693,13.693,0,0,1-.028-3.657Q1302.957,3241.468,1303.448,3235.463Z" transform="translate(-1186.98 -2946.143)"/><path class="ae" d="M1341.086,3419.64c.854.645,2.835,2.21,2.232,3.093-.468.685-2.613.066-3.359-.3-5.171-2.516-21-12.815-21.822-13.876-1.351-1.748.625-6.865,3.658-6.119C1324.874,3403.2,1333.329,3413.781,1341.086,3419.64Z" transform="translate(-1200.97 -3100.953)"/><path class="ae" d="M1563.076,3599.471l4.518,2.238c.177.319-.228.693-.594.678a4.648,4.648,0,0,1-1.038-.34c-.352-.1-.834.006-.906.365s.313.631.641.8l4.545,2.279a3.088,3.088,0,0,1-2.678,2.569,6.549,6.549,0,0,1-3.853-.827,15.789,15.789,0,0,1-4.461-3.29,4.39,4.39,0,0,1-1.446-2.788C1557.759,3598.419,1561.479,3598.68,1563.076,3599.471Z" transform="translate(-1419.8 -3280.105)"/><path class="m" d="M3373.505,3201.576c.4-1.683,1.251-3.235,1.737-4.9a5.687,5.687,0,0,0-.494-4.99c-1.936-2.557-6.193-1.683-8.7-3.678-1.758-1.4-2.226-3.93-1.885-6.152a41.626,41.626,0,0,1,2.038-6.416,24.2,24.2,0,0,0-.525-16.3,31.3,31.3,0,0,1,6.587,4.18,10.529,10.529,0,0,1,3.7,6.686c.136,1.569-.177,3.269.611,4.633,1.224,2.12,4.374,2.238,5.986,4.082,1.439,1.646,5.386,19.03,4.872,20.488-.562,1.595-2.457,2.3-3.33,3.753-.822,1.36,1.949,4.112,2.337,5.655,1.074,4.313-2.314,7.636-7.294,4.361C3375.366,3210.494,3372.382,3206.291,3373.505,3201.576Z" transform="translate(-3066.04 -2879.273)"/><path class="ak" d="M3541.241,2887.785a11.111,11.111,0,0,1,.074-7.423c1.058-2.382,3.395-4.14,3.963-6.684,1.1-4.935-4.97-9.2-4.258-14.206.346-2.437,2.236-4.341,3.212-6.6a13.085,13.085,0,0,0,.531-7.569c-.473-2.52-1.375-4.942-2.1-7.406-.541-1.842-1.9-3.359-2.028-11.494-.1-6.611,6.217-12.648,8.083-12.2-2.365,4.564-3.172,12.646-1.582,15.739,2.871,5.588,7.259,9.154,5,18.249a17.924,17.924,0,0,0-.886,6.379,8.836,8.836,0,0,0,2.975,6.255c1.808,1.4,3.759,3.158,3.754,5.447-.007,3.051-3.5,5.184-3.679,8.229-.166,2.81,2.532,5.019,2.966,7.8.431,2.756-1.417,5.3-3.235,7.423s-3.81,4.472-3.744,7.264c.03,1.293.428,2.844-.55,3.692-2.668,2.315-3.579-2.712-4.087-4.042C3544.466,2893.543,3542.169,2891.126,3541.241,2887.785Z" transform="translate(-3226.973 -2564.876)"/><path class="al" d="M3608.983,3138.975c1.479-1.174,2.717-11.828,1.949-14.573a5.368,5.368,0,0,1,1.345-4.638c1.052-1.3,2.407-2.329,3.487-3.606,3.042-3.6,1.271-22.228,5.69-26.1-.051,3.3,2.641,13.218,3.5,14.862s1.138,6.505,0,7.973c-1.2,1.549-3.558,5.571-4.924,6.976a5.342,5.342,0,0,0-.974,4.935,43.425,43.425,0,0,0,1.879,4.9,16.746,16.746,0,0,1-3.554,17,17.969,17.969,0,0,0-2.579,2.875c-.835,1.372-.376,2.215-1.772,2.835a6.736,6.736,0,0,1-5.766-.481C3603.256,3148.951,3605.794,3141.5,3608.983,3138.975Z" transform="translate(-3285.822 -2816.313)"/><path class="g" d="M3494.443,3821.815h-17.66l-3.653-23.955H3498.1Z" transform="translate(-3165.447 -3461.41)"/><path class="f" d="M3468.416,3757.394h-27a1.967,1.967,0,0,1-1.967-1.967h0a1.966,1.966,0,0,1,1.967-1.967h27a1.967,1.967,0,0,1,1.967,1.967h0A1.967,1.967,0,0,1,3468.416,3757.394Z" transform="translate(-3134.751 -3420.943)"/><path class="am" d="M2839.149,2501.127a.753.753,0,0,1-.006-1.506c1.461-.01,2.945-.04,4.41-.088h.026a.753.753,0,0,1,.024,1.506c-1.479.049-2.975.079-4.448.089Zm-4.43-.022h-.014c-1.485-.026-2.981-.073-4.447-.138a.754.754,0,0,1,.068-1.506c1.452.064,2.934.11,4.406.137a.753.753,0,1,1-.013,1.506Zm13.283-.266a.753.753,0,1,1-.043-1.506c1.467-.084,2.947-.189,4.4-.309a.753.753,0,1,1,.125,1.5c-1.467.122-2.961.227-4.44.313Zm-22.13-.127h-.055c-1.485-.106-2.976-.236-4.429-.382a.753.753,0,1,1,.152-1.5c1.441.145,2.918.272,4.389.378a.754.754,0,1,1-.053,1.506Zm30.961-.606a.754.754,0,1,1-.08-1.506c1.463-.159,2.936-.339,4.381-.532a.753.753,0,0,1,.2,1.493c-1.457.2-2.944.377-4.42.538a.649.649,0,0,1-.081.005Zm-39.771-.286a.724.724,0,0,1-.1-.007c-1.485-.2-2.969-.417-4.406-.657a.753.753,0,1,1,.247-1.485c1.417.236,2.886.454,4.356.65a.753.753,0,0,1-.1,1.5Zm48.554-.9a.753.753,0,0,1-.121-1.5c1.457-.238,2.918-.5,4.341-.769a.753.753,0,0,1,.284,1.479c-1.437.275-2.912.537-4.383.776a.666.666,0,0,1-.121.008Zm-57.292-.556a.735.735,0,0,1-.152-.016c-1.478-.3-2.942-.629-4.352-.974a.753.753,0,1,1,.36-1.462c1.39.342,2.835.666,4.293.964a.753.753,0,0,1-.15,1.491Zm65.991-1.115a.753.753,0,0,1-.164-1.489c1.448-.323,2.889-.67,4.283-1.029a.753.753,0,1,1,.377,1.458c-1.41.364-2.868.714-4.331,1.041a.8.8,0,0,1-.164.017Zm-74.593-1.01a.737.737,0,0,1-.214-.031c-1.455-.429-2.886-.89-4.252-1.371a.753.753,0,0,1,.5-1.417c1.341.472,2.746.926,4.178,1.348a.753.753,0,0,1-.212,1.475Zm83.167-1.208a.753.753,0,0,1-.214-1.475c1.428-.423,2.835-.872,4.193-1.329a.753.753,0,1,1,.486,1.426c-1.373.467-2.8.921-4.252,1.351a.752.752,0,0,1-.21.024Zm-91.513-1.745a.761.761,0,0,1-.292-.059c-1.411-.6-2.78-1.229-4.067-1.883a.753.753,0,0,1,.682-1.343c1.256.639,2.592,1.257,3.971,1.837a.753.753,0,0,1-.293,1.447Zm99.9-1.115a.753.753,0,0,1-.275-1.455c.249-.1.5-.2.744-.295a33.6,33.6,0,0,0,3.208-1.5.753.753,0,1,1,.708,1.329,34.855,34.855,0,0,1-3.353,1.563c-.252.1-.5.2-.757.3A.753.753,0,0,1,2891.277,2492.17Zm7.817-4.125a.753.753,0,0,1-.425-1.375c1.168-.8,2.336-1.683,3.47-2.633a.753.753,0,0,1,.966,1.152c-1.17.979-2.377,1.895-3.586,2.721a.753.753,0,0,1-.424.132Zm6.8-5.666a.753.753,0,0,1-.531-1.286c1.018-1.014,2.016-2.092,2.967-3.205a.753.753,0,1,1,1.146.974c-.975,1.144-2,2.251-3.05,3.293a.743.743,0,0,1-.531.221Zm5.753-6.725a.754.754,0,0,1-.609-1.2c.858-1.177,1.678-2.4,2.439-3.632a.753.753,0,1,1,1.281.79c-.781,1.267-1.623,2.52-2.5,3.728a.753.753,0,0,1-.613.308Zm4.647-7.538a.754.754,0,0,1-.67-1.1c.671-1.309,1.284-2.643,1.826-3.966a.753.753,0,0,1,1.395.571c-.558,1.362-1.19,2.735-1.88,4.081a.753.753,0,0,1-.67.407Zm3.342-8.2a.753.753,0,0,1-.721-.974,40.819,40.819,0,0,0,1.045-4.22.753.753,0,1,1,1.48.281,42.146,42.146,0,0,1-1.084,4.377.751.751,0,0,1-.72.534Zm1.623-8.69h-.047a.754.754,0,0,1-.709-.8c.039-.629.059-1.257.059-1.869,0-.826-.036-1.648-.106-2.443a.753.753,0,1,1,1.5-.133c.074.838.112,1.705.112,2.576,0,.642-.021,1.3-.061,1.961a.753.753,0,0,1-.748.7Zm-.825-8.777a.752.752,0,0,1-.726-.553,20.878,20.878,0,0,0-1.538-3.977.753.753,0,0,1,1.34-.687,22.413,22.413,0,0,1,1.65,4.264.752.752,0,0,1-.727.952Zm-4.017-7.811a.751.751,0,0,1-.582-.274,20.933,20.933,0,0,0-3.039-2.99.753.753,0,1,1,.943-1.174,22.437,22.437,0,0,1,3.258,3.205.753.753,0,0,1-.58,1.232Zm-6.832-5.54a.756.756,0,0,1-.361-.089,29.954,29.954,0,0,0-3.929-1.779.753.753,0,0,1,.524-1.411,31.471,31.471,0,0,1,4.127,1.868.753.753,0,0,1-.361,1.417Zm-8.26-3.112a.816.816,0,0,1-.177-.021c-1.353-.331-2.792-.612-4.275-.832a.753.753,0,1,1,.221-1.489c1.529.227,3.012.515,4.412.857a.753.753,0,0,1-.177,1.485Zm-22.016-1.163a.754.754,0,1,1-.063-1.506c1.513-.127,3.012-.221,4.452-.28a.754.754,0,0,1,.061,1.506c-1.417.057-2.9.15-4.387.275A.419.419,0,0,1,2879.306,2424.828Zm13.271-.165h-.055c-1.4-.1-2.877-.162-4.377-.177a.753.753,0,1,1,.009-1.506h.008c1.531.017,3.035.079,4.469.183a.753.753,0,1,1-.054,1.506Z" transform="translate(-2539.742 -2208.329)"/><path class="an" d="M4111.39,2844.232l21.858-24.576-5.949-1.8Z" transform="translate(-3747.164 -2568.227)"/><path class="g" d="M4111.39,2767.637l11.1-33.817,9.621,14.89Z" transform="translate(-3747.164 -2491.632)"/><path class="ao" d="M4111.39,2822.659l17.045-24.615,4.813.04-7.3-3.893Z" transform="translate(-3747.164 -2546.654)"/><path class="ap" d="M3963.628,1809.784l23.327-.306a2.209,2.209,0,0,1,2.239,2.18l.137,10.481a2.21,2.21,0,0,1-2.18,2.238l-13.716.177-5.607,5.758-.074-5.68-3.931.051a2.209,2.209,0,0,1-2.239-2.181l-.137-10.48A2.209,2.209,0,0,1,3963.628,1809.784Z" transform="translate(-3610.505 -1649.177)"/><path class="f" d="M4052.45,1851.218a.638.638,0,0,0-.647-.629l-12.961.169a.639.639,0,0,0,.017,1.276l12.961-.17a.638.638,0,0,0,.63-.647Zm-14.209,2.346a.64.64,0,0,0,.647.63l12.961-.17a.639.639,0,1,0-.017-1.277l-12.961.17a.639.639,0,0,0-.63.647Zm.029,2.158h0a.639.639,0,0,0,.647.63l12.96-.169a.639.639,0,0,0,.63-.647h0a.639.639,0,0,0-.647-.63l-12.96.17a.638.638,0,0,0-.63.646Zm.029,2.159a.638.638,0,0,0,.646.63l7-.089a.638.638,0,0,0-.017-1.276l-7,.089a.639.639,0,0,0-.625.646Z" transform="translate(-3680.49 -1686.646)"/><ellipse class="w" cx="7.442" cy="9.116" rx="7.442" ry="9.116" transform="translate(343.245 323.048)"/><circle class="x" cx="0.998" cy="0.998" r="0.998" transform="translate(346.908 327.144) rotate(-45)"/><circle class="x" cx="0.998" cy="0.998" r="0.998" transform="translate(344.448 331.891) rotate(-76.72)"/><circle class="x" cx="0.998" cy="0.998" r="0.998" transform="translate(345.445 335.748) rotate(-76.72)"/><circle class="x" cx="0.998" cy="0.998" r="0.998" transform="translate(351.184 326.147) rotate(-45)"/><circle class="x" cx="0.998" cy="0.998" r="0.998" transform="translate(349.279 332.164) rotate(-45)"/><circle class="x" cx="0.998" cy="0.998" r="0.998" transform="translate(354.174 330.569) rotate(-45)"/><circle class="x" cx="0.998" cy="0.998" r="0.998" transform="translate(352.547 335.481) rotate(-45)"/><circle class="x" cx="0.998" cy="0.998" r="0.998" transform="translate(348.282 337.448) rotate(-45)"/><ellipse class="w" cx="6.286" cy="5.131" rx="6.286" ry="5.131" transform="translate(352.241 323.203) rotate(-46.92)"/><path class="x" d="M4073.579,3588.668a.688.688,0,1,1,.187-.494A.687.687,0,0,1,4073.579,3588.668Z" transform="translate(-3711.62 -3269.693)"/><circle class="x" cx="0.687" cy="0.687" r="0.687" transform="matrix(1, -0.01, 0.01, 1, 357.524, 318.607)"/><circle class="x" cx="0.687" cy="0.687" r="0.687" transform="translate(356.214 321.007) rotate(-1.32)"/><circle class="x" cx="0.687" cy="0.687" r="0.687" transform="translate(363.39 319.328) rotate(-1.92)"/><circle class="x" cx="0.687" cy="0.687" r="0.687" transform="matrix(0.526, -0.851, 0.851, 0.526, 359.349, 322.4)"/><path class="x" d="M4096.675,3646.782a.688.688,0,1,1,.186-.494A.688.688,0,0,1,4096.675,3646.782Z" transform="translate(-3732.669 -3322.659)"/><path class="x" d="M4061.3,3666.078a.687.687,0,1,1,.187-.494A.687.687,0,0,1,4061.3,3666.078Z" transform="translate(-3700.428 -3340.246)"/><circle class="x" cx="0.687" cy="0.687" r="0.687" transform="translate(356.606 323.653) rotate(-1.92)"/><path class="aq" d="M3862.319,3886.434h-18l-3.723-17.674h25.442Z" transform="translate(-3500.363 -3526.028)"/><path class="b" d="M3835.8,3838.9h-27.515c-1.107,0-2-.65-2-1.451h0c0-.8.9-1.451,2-1.451H3835.8c1.106,0,2,.65,2,1.451h0C3837.8,3838.252,3836.907,3838.9,3835.8,3838.9Z" transform="translate(-3469.083 -3496.171)"/><path class="y" d="M1788.862,2297.889h-82.619c-4.32,0-7.823-3.237-7.823-7.231v-34.306c0-3.994,3.5-7.231,7.823-7.231h82.619c4.321,0,7.824,3.238,7.824,7.231v34.306C1796.686,2294.652,1793.183,2297.889,1788.862,2297.889Z" transform="translate(-1547.958 -2049.872)"/><path class="y" d="M1964.59,2801.476V2785.65h15.825Z" transform="translate(-1790.548 -2538.87)"/><path class="e" d="M1783.394,2243.12h-82.619c-4.607,0-8.355,3.482-8.355,7.763v34.307c0,4.28,3.748,7.762,8.355,7.762H1716v15.339l15.339-15.339h52.054c4.607,0,8.356-3.482,8.356-7.762v-34.307C1791.749,2246.6,1788,2243.12,1783.394,2243.12Zm7.293,42.07c0,3.694-3.272,6.7-7.293,6.7H1730.9l-13.836,13.836v-13.836h-16.288c-4.021,0-7.292-3-7.292-6.7v-34.307c0-3.694,3.271-6.7,7.292-6.7h82.619c4.021,0,7.293,3.006,7.293,6.7Z" transform="translate(-1542.489 -2044.403)"/><path class="h" d="M1888.14,2373.57a31.079,31.079,0,0,0,8.682,0v5.658s-6.7.82-6.59.82S1888.14,2373.57,1888.14,2373.57Z" transform="translate(-1720.87 -2163.297)"/><path class="ar" d="M1805.646,2373.57h0a4.649,4.649,0,0,1-8.682,0h0a18.3,18.3,0,0,0-5.8,3.159l-3.064,2.48,2.417,3.991a.781.781,0,0,0,1.161.2l1.109-.9a.749.749,0,0,1,1.211.46,44.78,44.78,0,0,1-.083,13.988.781.781,0,0,0,.773.9h13.27a.783.783,0,0,0,.777-.871c-.586-5.245-.818-10.139-.149-14.039a.749.749,0,0,1,1.209-.453l1.137.919a.781.781,0,0,0,1.161-.2l2.417-3.991-3.064-2.48a18.292,18.292,0,0,0-5.8-3.158Z" transform="translate(-1629.693 -2163.297)"/><path class="h" d="M2211.64,2379.17a31.079,31.079,0,0,0,8.682,0v5.655s-6.7.818-6.591.818S2211.64,2379.17,2211.64,2379.17Z" transform="translate(-2015.712 -2168.4)"/><path class="as" d="M2129.137,2379.17h0a4.65,4.65,0,0,1-8.682,0h0a18.276,18.276,0,0,0-5.8,3.159l-3.065,2.481,2.417,3.991a.782.782,0,0,0,1.161.2l1.112-.9a.75.75,0,0,1,1.212.46,44.8,44.8,0,0,1-.083,13.988.782.782,0,0,0,.774.9h13.27a.782.782,0,0,0,.776-.872c-.586-5.245-.817-10.138-.149-14.039a.75.75,0,0,1,1.21-.453l1.136.92a.781.781,0,0,0,1.161-.2l2.417-3.991-3.064-2.481A18.287,18.287,0,0,0,2129.137,2379.17Z" transform="translate(-1924.525 -2168.4)"/><path class="h" d="M2537.24,2379.17a31.077,31.077,0,0,0,8.682,0v5.655s-6.7.818-6.591.818S2537.24,2379.17,2537.24,2379.17Z" transform="translate(-2312.468 -2168.4)"/><path class="at" d="M2454.737,2379.17h0a4.65,4.65,0,0,1-8.681,0h0a18.272,18.272,0,0,0-5.8,3.159l-3.065,2.481,2.417,3.991a.782.782,0,0,0,1.162.2l1.112-.9a.75.75,0,0,1,1.212.46,44.811,44.811,0,0,1-.083,13.988.782.782,0,0,0,.773.9h13.27a.782.782,0,0,0,.776-.872c-.586-5.245-.817-10.138-.149-14.039a.75.75,0,0,1,1.21-.453l1.136.92a.781.781,0,0,0,1.16-.2l2.417-3.991-3.064-2.481A18.287,18.287,0,0,0,2454.737,2379.17Z" transform="translate(-2221.281 -2168.4)"/><path class="au" d="M1030.92,1288.44a13.922,13.922,0,0,0-13.92,13.919c0,10.994,9.982,22.614,13.923,24.678,3.941-2.064,13.923-13.684,13.923-24.676A13.922,13.922,0,0,0,1030.92,1288.44Zm0,19.3a5.462,5.462,0,1,1,5.462-5.462A5.462,5.462,0,0,1,1030.92,1307.738Z" transform="translate(-926.905 -1174.298)"/><path class="am" d="M2456.012,1402.556a.747.747,0,0,1-.345-.089c-1.269-.656-1.949-1.032-1.976-1.048a.753.753,0,0,1,.731-1.317c.007,0,.69.382,1.937,1.027a.754.754,0,0,1-.346,1.423Z" transform="translate(-2235.966 -1275.982)"/><path class="am" d="M572.6,237.6h-.014c-1.452-.026-2.943-.082-4.429-.167a.754.754,0,1,1,.089-1.506c1.47.089,2.941.141,4.373.166a.753.753,0,1,1-.012,1.506Zm4.4-.015a.753.753,0,0,1-.019-1.506c1.47-.037,2.938-.108,4.364-.212a.755.755,0,0,1,.109,1.506c-1.449.1-2.942.177-4.435.214Zm-13.2-.486h-.072c-1.446-.136-2.923-.3-4.4-.493a.753.753,0,1,1,.193-1.494c1.458.188,2.923.354,4.352.486a.754.754,0,1,1-.07,1.506Zm21.983-.154a.753.753,0,0,1-.089-1.5c1.456-.177,2.907-.4,4.314-.651a.753.753,0,1,1,.266,1.482c-1.434.258-2.913.481-4.4.664a.845.845,0,0,1-.095.005Zm-30.715-.967a.8.8,0,0,1-.12-.01c-1.432-.231-2.9-.489-4.357-.768a.753.753,0,1,1,.283-1.479c1.445.276,2.9.532,4.313.76a.753.753,0,0,1-.119,1.5Zm39.383-.6a.753.753,0,0,1-.177-1.485c1.417-.344,2.835-.732,4.2-1.152a.753.753,0,0,1,.443,1.439c-1.4.432-2.84.83-4.292,1.18a.764.764,0,0,1-.175.018Zm-48.034-1.056a.734.734,0,0,1-.163-.018c-1.417-.312-2.87-.65-4.31-1.006a.753.753,0,1,1,.361-1.462c1.428.354,2.865.688,4.272,1a.753.753,0,0,1-.16,1.488Zm56.44-1.554a.754.754,0,0,1-.271-1.456c1.357-.524,2.7-1.1,4-1.707a.753.753,0,1,1,.641,1.363c-1.329.625-2.706,1.213-4.1,1.749a.75.75,0,0,1-.273.051Zm-65-.557a.768.768,0,0,1-.2-.027c-1.4-.383-2.835-.791-4.252-1.214a.753.753,0,0,1,.43-1.444c1.41.42,2.83.825,4.221,1.2a.753.753,0,0,1-.2,1.479Zm-8.448-2.513a.745.745,0,0,1-.23-.036c-1.387-.443-2.8-.916-4.2-1.4a.753.753,0,1,1,.491-1.424c1.388.478,2.79.945,4.164,1.388a.753.753,0,0,1-.23,1.47Zm81.4-.676a.753.753,0,0,1-.37-1.409c1.259-.709,2.5-1.475,3.7-2.275a.753.753,0,1,1,.837,1.252c-1.227.821-2.5,1.606-3.8,2.335a.752.752,0,0,1-.371.1Zm-89.741-2.2a.756.756,0,0,1-.26-.046c-1.371-.5-2.763-1.031-4.136-1.567a.753.753,0,1,1,.547-1.4c1.363.532,2.746,1.055,4.108,1.556a.753.753,0,0,1-.26,1.46Zm97.037-2.709a.753.753,0,0,1-.475-1.338c1.092-.886,2.175-1.86,3.218-2.893a.754.754,0,1,1,1.063,1.07c-1.078,1.063-2.2,2.075-3.329,2.993a.749.749,0,0,1-.476.168Zm-105.251-.493a.742.742,0,0,1-.286-.058c-1.36-.561-2.73-1.141-4.075-1.725a.753.753,0,1,1,.6-1.381c1.329.58,2.695,1.157,4.046,1.714a.753.753,0,0,1-.288,1.449Zm-8.083-3.518a.759.759,0,0,1-.314-.068c-1.36-.62-2.706-1.259-4-1.887a.753.753,0,0,1,.657-1.355c1.287.62,2.624,1.254,3.974,1.874a.753.753,0,0,1-.315,1.437Zm119.6-2.167a.752.752,0,0,1-.574-1.24c.916-1.081,1.817-2.232,2.677-3.423a.754.754,0,1,1,1.221.886c-.886,1.223-1.808,2.4-2.746,3.514A.752.752,0,0,1,624.381,217.939Zm5.165-7.127a.752.752,0,0,1-.639-1.152c.752-1.21,1.486-2.48,2.179-3.773a.753.753,0,1,1,1.329.709c-.709,1.322-1.458,2.619-2.227,3.855a.753.753,0,0,1-.642.361Zm4.17-7.755a.752.752,0,0,1-.683-1.069c.6-1.3,1.183-2.651,1.722-4.009a.753.753,0,1,1,1.4.556c-.55,1.384-1.141,2.759-1.755,4.085a.752.752,0,0,1-.684.437Zm3.258-8.181a.739.739,0,0,1-.241-.04.752.752,0,0,1-.472-.954c.462-1.365.9-2.768,1.293-4.172a.753.753,0,0,1,1.449.41c-.4,1.427-.847,2.854-1.317,4.243a.753.753,0,0,1-.713.512Zm-253.942-2.952H383a.753.753,0,0,1-.717-.788c.068-1.44.112-2.913.129-4.376a.753.753,0,0,1,.753-.744h.009a.753.753,0,0,1,.744.762c-.018,1.481-.062,2.971-.131,4.429A.753.753,0,0,1,383.032,191.924Zm-43.51-5.509c-1.16,0-2.312-.023-3.422-.066a.754.754,0,0,1,.059-1.506c1.091.043,2.222.066,3.366.066q.5,0,1-.006h.009a.753.753,0,1,1,.008,1.506q-.519.008-1.024.007Zm299.854-.014a.743.743,0,0,1-.17-.019.752.752,0,0,1-.564-.9c.325-1.41.62-2.85.878-4.279a.753.753,0,1,1,1.482.266c-.266,1.453-.563,2.916-.893,4.351a.753.753,0,0,1-.735.585Zm-294.443-.136a.753.753,0,0,1-.04-1.506c1.417-.076,2.884-.182,4.365-.318a.753.753,0,0,1,.136,1.5c-1.5.136-2.986.245-4.421.322Zm-13.195-.218a.754.754,0,0,1-.076,0c-1.521-.152-3.007-.354-4.415-.6a.753.753,0,0,1,.259-1.484c1.373.24,2.822.437,4.307.586a.754.754,0,1,1-.074,1.506Zm21.966-.574a.753.753,0,0,1-.089-1.5c1.417-.177,2.875-.378,4.341-.6a.753.753,0,1,1,.228,1.489c-1.48.226-2.955.431-4.384.608a.821.821,0,0,1-.1.005Zm-30.629-.964a.747.747,0,0,1-.2-.026,39.813,39.813,0,0,1-4.26-1.4.753.753,0,1,1,.554-1.4,37.975,37.975,0,0,0,4.1,1.347.753.753,0,0,1-.2,1.48Zm39.288-.613a.753.753,0,0,1-.21-1.476c1.235-.354,2.633-.816,4.154-1.359a.753.753,0,1,1,.507,1.417c-1.55.554-2.977,1.02-4.241,1.386A.752.752,0,0,1,362.363,183.9Zm20.769-.781a.753.753,0,0,1-.752-.735c-.035-1.469-.1-2.941-.185-4.376a.754.754,0,1,1,1.506-.089c.089,1.454.152,2.946.188,4.429a.753.753,0,0,1-.735.771Zm-68.2-1.875a.754.754,0,0,1-.374-.1,25.2,25.2,0,0,1-3.721-2.588.754.754,0,0,1,.974-1.152,23.655,23.655,0,0,0,3.5,2.431.754.754,0,0,1-.376,1.407Zm55.764-.276a.754.754,0,0,1-.277-1.454c1.274-.5,2.644-1.063,4.07-1.667a.753.753,0,1,1,.586,1.388c-1.437.606-2.816,1.171-4.1,1.683A.747.747,0,0,1,370.692,180.963Zm270.244-3.229a.751.751,0,0,1-.748-.85c.188-1.44.344-2.9.462-4.341a.753.753,0,1,1,1.5.122c-.12,1.467-.277,2.953-.47,4.417a.752.752,0,0,1-.745.652Zm-262.105-.195a.753.753,0,0,1-.3-1.442c1.268-.559,2.606-1.159,3.979-1.784a.755.755,0,0,1-.664-.672c-.149-1.47-.33-2.931-.537-4.341a.753.753,0,1,1,1.49-.219c.21,1.432.393,2.915.546,4.407a.724.724,0,0,0,.261,1.373.753.753,0,0,1-.432.8c-1.393.634-2.746,1.24-4.035,1.81a.75.75,0,0,1-.3.064Zm-70.543-1.983a.752.752,0,0,1-.6-.3,19.107,19.107,0,0,1-2.319-3.937.753.753,0,1,1,1.379-.6,17.61,17.61,0,0,0,2.134,3.627.753.753,0,0,1-.6,1.21Zm78.579-1.673a.753.753,0,0,1-.319-1.435c1.277-.6,2.619-1.231,3.987-1.882a.753.753,0,1,1,.648,1.36c-1.37.653-2.714,1.287-4,1.886a.754.754,0,0,1-.323.071Zm7.967-3.794a.754.754,0,0,1-.33-1.432c1.276-.62,2.609-1.268,3.962-1.932a.753.753,0,0,1,.664,1.352c-1.355.665-2.69,1.316-3.968,1.936a.751.751,0,0,1-.33.076Zm246.818-1.133h-.027a.753.753,0,0,1-.728-.777c.031-.944.046-1.9.046-2.835,0-.508,0-1.023-.013-1.531a.753.753,0,1,1,1.506-.027c.009.516.013,1.041.013,1.557,0,.954-.015,1.925-.047,2.885A.752.752,0,0,1,641.652,168.956ZM304.79,167.57a.753.753,0,0,1-.74-.62,21.659,21.659,0,0,1-.33-3.8c0-.246,0-.5.012-.744a.753.753,0,1,1,1.506.048c-.008.232-.011.466-.011.7a20.167,20.167,0,0,0,.307,3.531.754.754,0,0,1-.609.874A.768.768,0,0,1,304.79,167.57ZM402.75,166.2a.753.753,0,0,1-.336-1.427c1.277-.634,2.6-1.3,3.944-1.968a.753.753,0,1,1,.675,1.346c-1.34.673-2.669,1.336-3.949,1.971a.74.74,0,0,1-.334.079Zm-21.448-.6a.753.753,0,0,1-.738-.607c-.287-1.453-.611-2.884-.964-4.257a.753.753,0,0,1,1.459-.375c.354,1.4.689,2.86.982,4.341a.753.753,0,0,1-.593.886.764.764,0,0,1-.147.012Zm29.334-3.351a.753.753,0,0,1-.34-1.425c1.272-.643,2.595-1.315,3.932-2a.753.753,0,0,1,.683,1.342c-1.338.681-2.658,1.353-3.935,2a.753.753,0,0,1-.339.077Zm230.855-2.1a.753.753,0,0,1-.75-.7c-.1-1.455-.244-2.916-.421-4.346a.753.753,0,0,1,1.495-.185c.177,1.456.325,2.945.428,4.429a.753.753,0,0,1-.7.8Zm-336.463-1.329a.737.737,0,0,1-.157-.017.752.752,0,0,1-.58-.892,30.381,30.381,0,0,1,1.272-4.33.754.754,0,0,1,1.41.532,28.763,28.763,0,0,0-1.209,4.113.754.754,0,0,1-.741.591Zm113.469-.574a.753.753,0,0,1-.344-1.424q1.956-1,3.923-2.014a.753.753,0,1,1,.689,1.339q-1.968,1.013-3.925,2.015a.755.755,0,0,1-.343.083Zm-39.4-1.177a.752.752,0,0,1-.715-.52c-.459-1.406-.963-2.78-1.5-4.083a.753.753,0,0,1,1.394-.572c.548,1.338,1.063,2.746,1.536,4.189a.754.754,0,0,1-.483.95.763.763,0,0,1-.234.033Zm47.24-2.86A.753.753,0,0,1,426,152.8q1.964-1.015,3.928-2.038a.753.753,0,0,1,.694,1.337l-3.93,2.038a.745.745,0,0,1-.345.076Zm214.061-2.8a.755.755,0,0,1-.74-.62c-.26-1.437-.565-2.873-.9-4.268a.753.753,0,1,1,1.464-.354c.346,1.424.656,2.888.923,4.354a.753.753,0,0,1-.606.875.715.715,0,0,1-.136.009Zm-332.326-.818a.754.754,0,0,1-.664-1.106,38.85,38.85,0,0,1,2.333-3.836.753.753,0,1,1,1.24.854,37.281,37.281,0,0,0-2.243,3.684.754.754,0,0,1-.666.4Zm126.111-.448a.753.753,0,0,1-.347-1.417l3.906-2.038a.753.753,0,1,1,.7,1.335l-3.908,2.037a.75.75,0,0,1-.347.078Zm-58.443-1.207a.755.755,0,0,1-.671-.409c-.672-1.308-1.4-2.569-2.162-3.747a.753.753,0,0,1,1.265-.818c.788,1.219,1.541,2.524,2.237,3.877a.754.754,0,0,1-.669,1.1Zm66.265-2.867a.753.753,0,0,1-.349-1.417l3.909-2.038a.753.753,0,0,1,.7,1.335l-3.91,2.038a.753.753,0,0,1-.352.078Zm-128.954-2.73a.753.753,0,0,1-.571-1.24,43.915,43.915,0,0,1,3.093-3.25.753.753,0,1,1,1.036,1.094,42.5,42.5,0,0,0-2.986,3.131.75.75,0,0,1-.571.266Zm325.262-.493a.753.753,0,0,1-.719-.532c-.431-1.393-.91-2.778-1.423-4.117a.753.753,0,1,1,1.407-.539c.524,1.37,1.014,2.786,1.455,4.21a.753.753,0,0,1-.719.974Zm-188.489-.865a.753.753,0,0,1-.349-1.417l3.91-2.042a.753.753,0,1,1,.7,1.335l-3.91,2.038a.757.757,0,0,1-.348.087Zm-78.87-.419a.751.751,0,0,1-.582-.276,34.176,34.176,0,0,0-2.936-3.148.753.753,0,1,1,1.035-1.095,35.676,35.676,0,0,1,3.062,3.29.753.753,0,0,1-.582,1.231ZM457.65,137.9a.753.753,0,0,1-.349-1.417l3.914-2.038a.753.753,0,1,1,.695,1.336L458,137.82a.756.756,0,0,1-.351.082Zm-138.209-.609a.753.753,0,0,1-.461-1.349,44.166,44.166,0,0,1,3.68-2.551.754.754,0,1,1,.8,1.28,42.583,42.583,0,0,0-3.554,2.464A.75.75,0,0,1,319.441,137.293Zm45.124-1.748a.744.744,0,0,1-.438-.141,31.07,31.07,0,0,0-3.654-2.25.753.753,0,0,1,.7-1.334A32.506,32.506,0,0,1,365,134.18a.753.753,0,0,1-.443,1.365Zm270.6-.917a.754.754,0,0,1-.684-.437c-.611-1.319-1.273-2.624-1.967-3.878a.753.753,0,0,1,1.318-.729c.709,1.285,1.389,2.621,2.015,3.973a.754.754,0,0,1-.683,1.07Zm-169.692-.8a.753.753,0,0,1-.347-1.422q1.992-1.031,3.922-2.026a.753.753,0,1,1,.689,1.339q-1.927.992-3.918,2.024a.746.746,0,0,1-.345.088Zm-138.561-1.165a.753.753,0,0,1-.328-1.432,40.9,40.9,0,0,1,4.137-1.726.753.753,0,1,1,.5,1.417,39.574,39.574,0,0,0-3.987,1.663A.756.756,0,0,1,326.914,132.666Zm29.9-1.257a.743.743,0,0,1-.276-.053,37.8,37.8,0,0,0-4.1-1.348.753.753,0,0,1,.387-1.456,39.176,39.176,0,0,1,4.264,1.4.754.754,0,0,1-.276,1.455Zm116.5-1.617a.753.753,0,0,1-.344-1.424c1.367-.7,2.691-1.373,3.935-2a.753.753,0,1,1,.681,1.343c-1.24.63-2.569,1.3-3.93,2A.754.754,0,0,1,473.32,129.792Zm-138.12-.05a.753.753,0,0,1-.167-1.487,37.87,37.87,0,0,1,4.429-.742.753.753,0,1,1,.159,1.5,36.168,36.168,0,0,0-4.252.709A.739.739,0,0,1,335.2,129.742Zm13.125-.584a.852.852,0,0,1-.105-.007,35.1,35.1,0,0,0-4.3-.335.753.753,0,0,1,.025-1.506,36.7,36.7,0,0,1,4.48.349.753.753,0,0,1-.1,1.5Zm282.581-2.224a.751.751,0,0,1-.63-.34c-.793-1.21-1.639-2.4-2.514-3.534a.754.754,0,1,1,1.2-.92c.9,1.165,1.772,2.386,2.581,3.632a.753.753,0,0,1-.632,1.161ZM481.194,125.8a.753.753,0,0,1-.338-1.426c1.389-.7,2.721-1.357,3.959-1.965a.753.753,0,1,1,.664,1.351c-1.234.607-2.563,1.267-3.949,1.96a.751.751,0,0,1-.337.08Zm7.926-3.892a.753.753,0,0,1-.325-1.432c1.439-.689,2.788-1.323,4.01-1.883a.753.753,0,0,1,.628,1.37c-1.215.556-2.556,1.187-3.987,1.872a.751.751,0,0,1-.326.074Zm136.415-1.93a.752.752,0,0,1-.558-.247c-.968-1.069-1.991-2.111-3.04-3.1a.753.753,0,1,1,1.032-1.1c1.077,1.013,2.126,2.084,3.124,3.182a.753.753,0,0,1-.558,1.259ZM497.16,118.244a.753.753,0,0,1-.293-1.447l.339-.143c1.248-.522,2.508-1.039,3.745-1.539a.753.753,0,1,1,.564,1.4c-1.231.5-2.485,1.013-3.729,1.533l-.334.14A.743.743,0,0,1,497.16,118.244Zm8.167-3.3a.754.754,0,0,1-.273-1.456c1.377-.532,2.765-1.063,4.126-1.571a.753.753,0,1,1,.526,1.411c-1.355.5-2.737,1.03-4.106,1.564a.759.759,0,0,1-.273.051Zm113.8-.988a.752.752,0,0,1-.47-.165c-1.121-.9-2.3-1.764-3.492-2.576a.753.753,0,1,1,.845-1.246c1.229.834,2.436,1.724,3.588,2.645a.753.753,0,0,1-.47,1.341Zm-105.549-2.088a.753.753,0,0,1-.252-1.463c1.4-.5,2.8-.983,4.172-1.448a.753.753,0,0,1,.483,1.427c-1.366.462-2.761.946-4.15,1.44A.76.76,0,0,1,513.581,111.868Zm8.344-2.822a.753.753,0,0,1-.229-1.471c1.41-.451,2.83-.892,4.219-1.309a.753.753,0,1,1,.434,1.442c-1.381.415-2.792.853-4.194,1.3A.739.739,0,0,1,521.926,109.047Zm89.933-.03a.749.749,0,0,1-.373-.1c-1.24-.709-2.536-1.389-3.848-2.016a.753.753,0,0,1,.65-1.359c1.344.643,2.671,1.339,3.945,2.068a.753.753,0,0,1-.375,1.407Zm-81.5-2.5a.753.753,0,0,1-.2-1.478c1.427-.4,2.863-.788,4.266-1.152a.753.753,0,1,1,.378,1.458c-1.394.361-2.821.746-4.238,1.144A.768.768,0,0,1,530.357,106.515Zm73.569-1.294a.743.743,0,0,1-.276-.053c-1.329-.525-2.707-1.018-4.1-1.464a.753.753,0,1,1,.461-1.434c1.417.457,2.829.961,4.188,1.5a.753.753,0,0,1-.277,1.454Zm-65.042-.912a.754.754,0,0,1-.173-1.487c1.445-.341,2.9-.668,4.313-.969a.753.753,0,0,1,.314,1.473c-1.406.3-2.846.62-4.28.962a.787.787,0,0,1-.171.017Zm56.675-1.789a.75.75,0,0,1-.187-.023c-1.383-.354-2.814-.674-4.252-.955a.753.753,0,1,1,.289-1.478c1.465.286,2.923.613,4.335.974a.753.753,0,0,1-.184,1.481Zm-48.058-.046a.753.753,0,0,1-.138-1.493c1.46-.274,2.923-.532,4.359-.759a.753.753,0,1,1,.238,1.487c-1.417.229-2.872.482-4.319.753a.752.752,0,0,1-.138.012Zm8.7-1.394a.753.753,0,0,1-.1-1.5c1.475-.195,2.954-.368,4.4-.514a.753.753,0,1,1,.152,1.5c-1.428.144-2.891.315-4.352.508a.746.746,0,0,1-.1.006Zm30.73-.252a.712.712,0,0,1-.106-.007c-1.417-.2-2.874-.369-4.335-.5a.753.753,0,1,1,.137-1.5c1.486.136,2.969.308,4.407.511a.753.753,0,0,1-.1,1.5Zm-21.97-.633a.753.753,0,1,1-.051-1.506c1.487-.1,2.976-.177,4.425-.226a.753.753,0,1,1,.05,1.506c-1.432.048-2.9.123-4.372.223l-.048,0Zm13.205-.177h-.035c-1.43-.066-2.9-.1-4.371-.112a.753.753,0,1,1,0-1.506h0c1.491.008,2.982.046,4.429.113a.753.753,0,1,1-.035,1.506Z" transform="translate(-276.813 -89.683)"/><path class="am" d="M1185.534,1188.473a.69.69,0,0,1-.1-.007.752.752,0,0,1-.651-.842c0-.008.1-.8.221-2.172a.753.753,0,0,1,1.5.13c-.122,1.412-.223,2.2-.228,2.234A.753.753,0,0,1,1185.534,1188.473Z" transform="translate(-1079.821 -1079.824)"/><path class="an" d="M3325.51,90.8l39.96,9.254-1.585-7.585Z" transform="translate(-3030.905 -82.756)"/><path class="g" d="M3325.51,8.044,3369.164,0l-10.557,19.426Z" transform="translate(-3030.905)"/><path class="ao" d="M3325.51,79.827l37.129,3.962,2.831,5.292-.1-10.321Z" transform="translate(-3030.905 -71.783)"/><path class="av" d="M4008.043,542.031a12.489,12.489,0,0,0-23.844.995c.2,4.864,8.228,11.881,12.554,14.665C4000.957,554.461,4008.242,546.812,4008.043,542.031Z" transform="translate(-3631.235 -488.148)"/><path class="ap" d="M669.082,228.581l30.491-8.476a3,3,0,0,1,3.69,2.085l3.809,13.7a3,3,0,0,1-2.083,3.691l-17.93,4.983-5.362,9.49-2.064-7.426-5.138,1.429a3,3,0,0,1-3.691-2.085L667,232.271A3,3,0,0,1,669.082,228.581Z" transform="translate(-607.807 -200.505)"/><path class="f" d="M794.3,295.484a.866.866,0,0,0-1.063-.6L776.3,299.593a.866.866,0,1,0,.463,1.668l16.94-4.709A.866.866,0,0,0,794.3,295.484Zm-17.824,7.994a.867.867,0,0,0,1.063.6l16.943-4.708a.866.866,0,0,0-.463-1.668l-16.94,4.709a.866.866,0,0,0-.6,1.066Zm.785,2.822h0a.866.866,0,0,0,1.063.6l16.945-4.708a.866.866,0,0,0,.6-1.063h0a.866.866,0,0,0-1.063-.6l-16.945,4.707a.865.865,0,0,0-.6,1.066Zm.784,2.827a.866.866,0,0,0,1.063.6l9.162-2.551a.866.866,0,1,0-.464-1.668l-9.158,2.548a.865.865,0,0,0-.6,1.069Z" transform="translate(-706.946 -268.73)"/><path class="aw" d="M3726.264,1347.9l-2.781-2.163a2.194,2.194,0,0,0-1.589-.448l-6.041.671a2.194,2.194,0,0,0-1.489.834l-11.393,14.646a2.194,2.194,0,0,0,.385,3.079l9.656,7.511a2.2,2.2,0,0,0,3.079-.385L3727.484,1357a2.2,2.2,0,0,0,.443-1.649l-.836-6.024A2.191,2.191,0,0,0,3726.264,1347.9Z" transform="translate(-3374.505 -1226.1)"/><path class="c" d="M3912.413,1387.485a1.367,1.367,0,1,1-.24-1.918A1.367,1.367,0,0,1,3912.413,1387.485Z" transform="translate(-3563.585 -1262.558)"/><path class="c" d="M3933.6,1212.076c-2.82-2.193-7.1-1.417-9.55,1.724-1.073,1.379-1.907,4.376-2.48,8.9l.737.177c.552-4.377,1.36-7.357,2.34-8.619,2.191-2.815,6-3.53,8.491-1.595s2.738,5.806.547,8.622c-2.223,2.857-12.208,5.965-12.314,6a.378.378,0,0,0-.249.472.382.382,0,0,0,.129.186.376.376,0,0,0,.343.063c.421-.129,10.314-3.21,12.683-6.254C3936.73,1218.613,3936.427,1214.27,3933.6,1212.076Z" transform="translate(-3573.741 -1103.562)"/><path class="c" d="M3790.46,1450.641a2.256,2.256,0,0,1,3.1-.574,1.974,1.974,0,0,1,.177,2.916,2.248,2.248,0,0,1-3.09.563A1.969,1.969,0,0,1,3790.46,1450.641Zm6.717,2.1a1.447,1.447,0,0,1,.306.965l-9.176,3.3a1.644,1.644,0,0,1-.329-.935Zm-4.62-2.015a1.875,1.875,0,0,0-.781.639c-.467.6-.692,1.214-.406,1.436a.377.377,0,0,0,.265.1,1.927,1.927,0,0,0,.789-.649c.467-.6.692-1.214.407-1.435a.37.37,0,0,0-.27-.089Zm-.9,6.1a2.256,2.256,0,0,1,3.1-.573,1.974,1.974,0,0,1,.177,2.917,2.248,2.248,0,0,1-3.09.563,1.967,1.967,0,0,1-.184-2.906Zm2.1.089a1.878,1.878,0,0,0-.782.64c-.467.6-.692,1.214-.406,1.435a.378.378,0,0,0,.266.1,1.926,1.926,0,0,0,.789-.649c.467-.6.692-1.214.407-1.435a.375.375,0,0,0-.27-.095Z" transform="translate(-3452.403 -1321.24)"/><rect class="ax" width="6.458" height="12.045" rx="3.229" transform="matrix(0.871, -0.492, 0.492, 0.871, 40.283, 96.515)"/><path class="ax" d="M534.144,884.041a20.806,20.806,0,0,0,.8-9.181c-.147-1.521-.283-2.741-.283-2.741a1.487,1.487,0,0,1,1.088-1.8l.759-.187a1.487,1.487,0,0,1,1.8,1.089l1.453,5.028a1.483,1.483,0,0,0,2.069.964l1.409-.667,4.484-2.535a1.487,1.487,0,0,1,2.027.563l.385.68a1.487,1.487,0,0,1-.563,2.027l-4.013,2.271h0l6.862-3.878a.354.354,0,0,1,.489.135l1.5,2.645a.354.354,0,0,1-.136.489l-1.2.679a.361.361,0,0,1,.49.137l1.263,2.236a.354.354,0,0,1-.136.489l-1.321.747a.36.36,0,0,1,.154.146l1.264,2.236a.354.354,0,0,1-.136.489l-4.109,2.323a38.29,38.29,0,0,0-3.311,2.551,22.318,22.318,0,0,1-4.974,3.105c-2.108.958-4.914,1.522-5.079,1.23-.286-.5-4.714-8.338-4.714-8.338a4.725,4.725,0,0,0,1.265-1.719S533.994,884.44,534.144,884.041Z" transform="translate(-485.29 -793.008)"/><rect class="ap" width="6.458" height="12.045" rx="3.229" transform="translate(318.676 196.461) rotate(-0.07)"/><path class="ap" d="M3682.133,2095.732a20.892,20.892,0,0,0,5.206-7.605c.62-1.4,1.1-2.527,1.1-2.527a1.487,1.487,0,0,1,1.832-1.034l.753.21a1.488,1.488,0,0,1,1.034,1.832l-1.2,5.094a1.483,1.483,0,0,0,1.329,1.86l1.555.11,5.152-.006a1.487,1.487,0,0,1,1.489,1.486v.781a1.488,1.488,0,0,1-1.486,1.49l-4.614.005h0l7.885-.01a.36.36,0,0,1,.36.359v3.039a.36.36,0,0,1-.355.36h-1.378a.354.354,0,0,1,.359.354v2.569a.354.354,0,0,1-.354.36h-1.517a.363.363,0,0,1,.063.2v2.569a.355.355,0,0,1-.359.36l-4.72.006a38.076,38.076,0,0,0-4.137.6,22.31,22.31,0,0,1-5.855.266c-2.3-.2-5.028-1.088-5.029-1.417,0-.58-.011-9.577-.011-9.577a4.762,4.762,0,0,0,1.949-.877C3681.172,2096.583,3681.8,2096.006,3682.133,2095.732Z" transform="translate(-3353.288 -1899.846)"/><rect class="b" width="3.993" height="7.447" rx="1.996" transform="translate(294.452 202.172) rotate(-0.07)"/><path class="b" d="M3376.283,2206.724a12.9,12.9,0,0,0,3.219-4.7c.383-.864.68-1.562.68-1.562a.92.92,0,0,1,1.133-.639l.466.129a.92.92,0,0,1,.639,1.133l-.744,3.149a.916.916,0,0,0,.822,1.152l.961.068,3.185,0a.92.92,0,0,1,.92.919v.483a.92.92,0,0,1-.918.921h-2.853l4.872-.006a.222.222,0,0,1,.223.222v1.878a.223.223,0,0,1-.222.222h-.852a.223.223,0,0,1,.222.223v1.587a.221.221,0,0,1-.213.223h-.938a.219.219,0,0,1,.039.125v1.588a.224.224,0,0,1-.222.223h-2.918a23.45,23.45,0,0,0-2.557.368,13.815,13.815,0,0,1-3.62.163c-1.426-.124-3.109-.672-3.109-.879,0-.354-.008-5.922-.008-5.922a2.912,2.912,0,0,0,1.2-.542S3376.081,2206.894,3376.283,2206.724Z" transform="translate(-3075.545 -2004.909)"/><rect class="b" width="3.154" height="5.882" rx="1.577" transform="translate(316.066 217.29) rotate(-0.07)"/><path class="b" d="M3609.175,2393.187a10.206,10.206,0,0,0,2.542-3.714c.3-.682.537-1.233.537-1.233a.725.725,0,0,1,.895-.5l.369.1a.726.726,0,0,1,.5.895l-.587,2.488a.724.724,0,0,0,.649.906l.759.053h2.516a.726.726,0,0,1,.727.726v.382a.727.727,0,0,1-.726.728h1.6a.177.177,0,0,1,.177.177v1.483a.177.177,0,0,1-.177.177h-.673a.177.177,0,0,1,.177.177v1.254a.177.177,0,0,1-.177.177h-.74a.177.177,0,0,1,.03.1v1.254a.177.177,0,0,1-.177.177h-2.3a18.639,18.639,0,0,0-2.02.292,10.89,10.89,0,0,1-2.86.128,5.38,5.38,0,0,1-2.456-.695c0-.283-.006-4.677-.006-4.677a2.3,2.3,0,0,0,.95-.428C3608.707,2393.6,3609.013,2393.321,3609.175,2393.187Z" transform="translate(-3288.141 -2176.182)"/></svg>